<svg xmlns="http://www.w3.org/2000/svg" xmlns:xlink="http://www.w3.org/1999/xlink" width="810" viewBox="0 0 810 675" height="675" version="1.0"><defs><clipPath id="b"><path d="M 306 553 L 423 553 L 423 666.933594 L 306 666.933594 Z M 306 553"/></clipPath><clipPath id="d"><path d="M0 0H429V247H0z"/></clipPath><clipPath id="g"><path d="M 0.726562 201 L 14 201 L 14 218 L 0.726562 218 Z M 0.726562 201"/></clipPath><clipPath id="f"><path d="M0 0H206V272H0z"/></clipPath><clipPath id="h"><path d="M 29.648438 279 L 198 279 L 198 377 L 29.648438 377 Z M 29.648438 279"/></clipPath><mask id="c"><g filter="url(#a)"><path fill-opacity=".8" d="M-81 -67.5H891V742.5H-81z"/></g></mask><mask id="e"><g filter="url(#a)"><path fill-opacity=".098" d="M-81 -67.5H891V742.5H-81z"/></g></mask><filter x="0%" y="0%" width="100%" xmlns:xlink="http://www.w3.org/1999/xlink" xlink:type="simple" xlink:actuate="onLoad" height="100%" id="a" xlink:show="other"><feColorMatrix values="0 0 0 0 1 0 0 0 0 1 0 0 0 0 1 0 0 0 1 0" color-interpolation-filters="sRGB"/></filter></defs><g clip-path="url(#b)"><path fill="#43455E" d="M 405.601562 557.796875 C 410.710938 561.398438 417.335938 569.164062 420.554688 578.445312 C 422.449219 583.9375 422.449219 587.34375 422.257812 588.480469 C 421.878906 594.730469 418.664062 597.003906 415.632812 603.066406 C 412.792969 608.75 413.550781 610.832031 412.984375 617.648438 C 412.605469 621.25 412.226562 623.902344 411.089844 629.015625 C 409.574219 635.453125 408.441406 636.78125 405.601562 646.441406 C 404.84375 648.902344 404.277344 650.984375 404.085938 652.121094 C 403.328125 656.855469 402.382812 661.78125 401.625 666.515625 C 380.613281 663.105469 359.601562 659.507812 338.589844 656.097656 C 340.859375 646.0625 343.320312 636.023438 345.59375 625.984375 C 340.859375 630.910156 336.695312 634.886719 333.476562 637.726562 C 322.117188 647.953125 317.765625 649.46875 313.601562 649.46875 C 312.085938 649.46875 307.730469 649.46875 306.785156 647.386719 C 305.269531 643.789062 317.574219 637.917969 331.960938 622.007812 C 338.398438 614.808594 340.292969 611.210938 341.425781 608.9375 C 345.214844 600.605469 345.214844 592.839844 344.835938 587.722656 C 346.160156 582.988281 347.296875 578.253906 348.621094 573.519531 C 367.742188 553.632812 392.917969 549.085938 405.601562 557.796875 Z M 405.601562 557.796875" fill-opacity=".047"/></g><path fill="#43455E" d="M 772.464844 401.351562 L 421.125 201.339844 L 315.492188 314.222656 L 276.308594 291.496094 C 270.0625 287.898438 259.839844 287.898438 253.402344 291.496094 L 55.203125 406.84375 C 54.828125 407.03125 54.449219 407.410156 54.070312 407.601562 L 48.769531 409.496094 L 50.851562 414.796875 C 51.039062 415.175781 51.039062 415.746094 51.417969 416.125 C 52.175781 417.640625 53.5 418.964844 55.394531 420.101562 L 377.585938 606.097656 C 383.832031 609.695312 394.054688 609.695312 400.488281 606.097656 L 598.6875 490.75 C 601.527344 489.042969 603.042969 486.960938 603.417969 484.878906 L 771.140625 419.910156 C 779.089844 416.882812 780.039062 405.707031 772.464844 401.351562 Z M 772.464844 401.351562" fill-opacity=".047"/><path fill="#43455E" d="M 600.960938 468.777344 C 601.148438 466.125 48.199219 394.910156 48.199219 397.371094 L 48.199219 407.222656 C 48.199219 409.683594 49.714844 411.957031 52.933594 413.851562 L 375.125 600.035156 C 381.371094 603.632812 391.59375 603.632812 398.027344 600.035156 L 596.226562 484.6875 C 599.445312 482.792969 600.960938 480.519531 600.960938 478.058594 L 600.960938 468.210938 C 601.148438 468.398438 600.960938 468.589844 600.960938 468.777344 Z M 600.960938 468.777344"/><path fill="#E4E1F9" d="M 596.226562 461.582031 C 602.472656 465.179688 602.664062 471.242188 596.226562 474.839844 L 398.027344 590.1875 C 391.78125 593.785156 381.558594 593.785156 375.125 590.1875 L 52.933594 404.003906 C 46.6875 400.402344 46.496094 394.34375 52.933594 390.742188 L 251.132812 275.394531 C 257.378906 271.796875 267.601562 271.796875 274.035156 275.394531 Z M 596.226562 461.582031"/><path fill="#464EAB" d="M 339.34375 482.226562 C 343.320312 484.5 343.320312 488.285156 339.34375 490.558594 L 287.097656 520.863281 C 283.121094 523.136719 276.6875 523.136719 272.902344 520.863281 L 159.132812 455.140625 C 155.15625 452.867188 155.15625 449.082031 159.132812 446.808594 L 211.378906 416.503906 C 215.351562 414.230469 221.789062 414.230469 225.574219 416.503906 Z M 339.34375 482.226562"/><g mask="url(#c)"><g><g clip-path="url(#d)" fill="#43455E" transform="translate(142 289)"><path d="M 418.257812 182.242188 C 416.933594 182.242188 415.796875 182.050781 415.042969 181.484375 L 115.378906 8.367188 C 114.621094 7.988281 114.242188 7.421875 114.242188 6.851562 C 114.242188 6.285156 114.621094 5.714844 115.378906 5.335938 L 120.300781 2.496094 C 121.246094 1.925781 122.382812 1.738281 123.519531 1.738281 C 124.84375 1.738281 125.980469 1.925781 126.734375 2.496094 L 426.398438 175.613281 C 427.15625 175.992188 427.535156 176.558594 427.535156 177.125 C 427.535156 177.695312 427.15625 178.261719 426.398438 178.640625 L 421.476562 181.484375 C 420.71875 181.863281 419.585938 182.242188 418.257812 182.242188 Z M 418.257812 182.242188"/><path d="M 275.148438 228.078125 C 273.824219 228.078125 272.6875 227.886719 271.929688 227.320312 L 254.703125 217.46875 C 253.945312 217.089844 253.566406 216.523438 253.566406 215.953125 C 253.566406 215.386719 253.945312 214.816406 254.703125 214.4375 L 257.542969 212.734375 C 258.488281 212.167969 259.625 211.976562 260.761719 211.976562 C 262.085938 211.976562 263.222656 212.167969 263.980469 212.734375 L 281.207031 222.582031 C 281.960938 222.960938 282.339844 223.53125 282.339844 224.097656 C 282.339844 224.667969 281.960938 225.234375 281.207031 225.613281 L 278.367188 227.320312 C 277.609375 227.886719 276.472656 228.078125 275.148438 228.078125 Z M 275.148438 228.078125"/><path d="M 304.488281 245.121094 C 303.164062 245.121094 302.027344 244.933594 301.269531 244.367188 L 284.046875 234.515625 C 283.289062 234.136719 282.910156 233.570312 282.910156 233 C 282.910156 232.433594 283.289062 231.863281 284.046875 231.484375 L 301.082031 221.636719 C 302.027344 221.070312 303.164062 220.878906 304.300781 220.878906 C 305.625 220.878906 306.761719 221.070312 307.519531 221.636719 L 324.746094 231.484375 C 325.5 231.863281 325.878906 232.433594 325.878906 233 C 325.878906 233.570312 325.503906 234.136719 324.746094 234.515625 L 307.707031 244.367188 C 306.949219 244.742188 305.816406 245.121094 304.488281 245.121094 Z M 304.488281 245.121094"/><path d="M 289.34375 219.742188 C 288.019531 219.742188 286.882812 219.554688 286.128906 218.984375 L 268.902344 209.136719 C 268.144531 208.757812 267.765625 208.1875 267.765625 207.621094 C 267.765625 207.050781 268.144531 206.484375 268.902344 206.105469 L 271.742188 204.402344 C 272.6875 203.832031 273.824219 203.644531 274.957031 203.644531 C 276.285156 203.644531 277.417969 203.832031 278.175781 204.402344 L 295.402344 214.25 C 296.160156 214.628906 296.539062 215.195312 296.539062 215.765625 C 296.539062 216.332031 296.160156 216.902344 295.402344 217.28125 L 292.5625 218.984375 C 291.804688 219.554688 290.671875 219.742188 289.34375 219.742188 Z M 289.34375 219.742188"/><path d="M 245.804688 211.21875 C 244.480469 211.21875 243.34375 211.03125 242.589844 210.460938 L 225.363281 200.613281 C 224.605469 200.234375 224.226562 199.664062 224.226562 199.097656 C 224.226562 198.53125 224.605469 197.960938 225.363281 197.582031 L 242.398438 187.734375 C 243.34375 187.164062 244.480469 186.976562 245.617188 186.976562 C 246.941406 186.976562 248.078125 187.164062 248.835938 187.734375 L 266.0625 197.582031 C 266.820312 197.960938 267.199219 198.53125 267.199219 199.097656 C 267.199219 199.664062 266.820312 200.234375 266.0625 200.613281 L 249.023438 210.460938 C 248.265625 210.839844 246.941406 211.21875 245.804688 211.21875 Z M 245.804688 211.21875"/><path d="M 216.464844 194.171875 C 215.140625 194.171875 214.003906 193.984375 213.246094 193.414062 L 78.464844 115.570312 C 77.707031 115.191406 77.328125 114.625 77.328125 114.054688 C 77.328125 113.488281 77.707031 112.917969 78.464844 112.539062 L 95.5 102.691406 C 96.449219 102.121094 97.582031 101.933594 98.71875 101.933594 C 100.042969 101.933594 101.179688 102.121094 101.9375 102.691406 L 236.53125 180.535156 C 237.289062 180.914062 237.667969 181.484375 237.667969 182.050781 C 237.667969 182.621094 237.289062 183.1875 236.53125 183.566406 L 219.492188 193.414062 C 218.738281 193.984375 217.601562 194.171875 216.464844 194.171875 Z M 216.464844 194.171875"/><path d="M 69.566406 109.320312 C 68.242188 109.320312 67.105469 109.128906 66.347656 108.5625 L 49.121094 98.714844 C 48.367188 98.335938 47.988281 97.765625 47.988281 97.199219 C 47.988281 96.628906 48.367188 96.0625 49.121094 95.683594 L 66.160156 85.832031 C 67.105469 85.265625 68.242188 85.078125 69.378906 85.078125 C 70.703125 85.078125 71.839844 85.265625 72.597656 85.832031 L 89.824219 95.683594 C 90.578125 96.0625 90.957031 96.628906 90.957031 97.199219 C 90.957031 97.765625 90.578125 98.335938 89.824219 98.714844 L 72.785156 108.5625 C 72.027344 109.128906 70.890625 109.320312 69.566406 109.320312 Z M 69.566406 109.320312"/><path d="M 40.984375 92.839844 C 39.65625 92.839844 38.523438 92.652344 37.765625 92.085938 L 3.3125 72.195312 C 2.554688 71.816406 2.175781 71.25 2.175781 70.679688 C 2.175781 70.113281 2.554688 69.546875 3.3125 69.167969 L 20.347656 59.316406 C 21.296875 58.75 22.429688 58.558594 23.566406 58.558594 C 24.890625 58.558594 26.027344 58.75 26.785156 59.316406 L 61.238281 79.203125 C 61.996094 79.582031 62.375 80.152344 62.375 80.71875 C 62.375 81.289062 61.996094 81.855469 61.238281 82.234375 L 44.199219 92.085938 C 43.445312 92.464844 42.117188 92.839844 40.984375 92.839844 Z M 40.984375 92.839844"/><path d="M 111.023438 100.226562 C 109.699219 100.226562 108.5625 100.039062 107.804688 99.472656 L 90.578125 89.621094 C 89.824219 89.242188 89.445312 88.675781 89.445312 88.105469 C 89.445312 87.539062 89.824219 86.96875 90.578125 86.589844 L 107.617188 76.742188 C 108.5625 76.175781 109.699219 75.984375 110.835938 75.984375 C 112.160156 75.984375 113.296875 76.175781 114.054688 76.742188 L 131.28125 86.589844 C 132.035156 86.96875 132.414062 87.539062 132.414062 88.105469 C 132.414062 88.675781 132.035156 89.242188 131.28125 89.621094 L 114.242188 99.472656 C 113.296875 100.039062 112.160156 100.226562 111.023438 100.226562 Z M 111.023438 100.226562"/><path d="M 140.367188 117.273438 C 139.039062 117.273438 137.90625 117.085938 137.148438 116.515625 L 119.921875 106.667969 C 119.164062 106.289062 118.785156 105.722656 118.785156 105.152344 C 118.785156 104.585938 119.164062 104.015625 119.921875 103.636719 L 136.957031 93.789062 C 137.90625 93.21875 139.039062 93.03125 140.175781 93.03125 C 141.5 93.03125 142.636719 93.21875 143.394531 93.789062 L 160.621094 103.636719 C 161.378906 104.015625 161.757812 104.585938 161.757812 105.152344 C 161.757812 105.722656 161.378906 106.289062 160.621094 106.667969 L 143.582031 116.515625 C 142.636719 116.894531 141.5 117.273438 140.367188 117.273438 Z M 140.367188 117.273438"/><path d="M 169.707031 134.132812 C 168.382812 134.132812 167.246094 133.941406 166.488281 133.375 L 149.261719 123.523438 C 148.503906 123.144531 148.128906 122.578125 148.128906 122.011719 C 148.128906 121.441406 148.503906 120.875 149.261719 120.496094 L 166.300781 110.644531 C 167.246094 110.078125 168.382812 109.886719 169.519531 109.886719 C 170.84375 109.886719 171.980469 110.078125 172.734375 110.644531 L 189.960938 120.496094 C 190.71875 120.875 191.097656 121.441406 191.097656 122.011719 C 191.097656 122.578125 190.71875 123.144531 189.960938 123.523438 L 172.925781 133.375 C 172.167969 133.941406 170.84375 134.132812 169.707031 134.132812 Z M 169.707031 134.132812"/><path d="M 199.050781 151.179688 C 197.722656 151.179688 196.589844 150.988281 195.832031 150.421875 L 178.605469 140.570312 C 177.847656 140.191406 177.46875 139.625 177.46875 139.054688 C 177.46875 138.488281 177.847656 137.921875 178.605469 137.542969 L 195.640625 127.691406 C 196.589844 127.125 197.722656 126.933594 198.859375 126.933594 C 200.183594 126.933594 201.320312 127.125 202.078125 127.691406 L 219.304688 137.542969 C 220.0625 137.921875 220.441406 138.488281 220.441406 139.054688 C 220.441406 139.625 220.0625 140.191406 219.304688 140.570312 L 202.265625 150.421875 C 201.511719 150.800781 200.375 151.179688 199.050781 151.179688 Z M 199.050781 151.179688"/><path d="M 228.390625 168.035156 C 227.066406 168.035156 225.929688 167.847656 225.171875 167.277344 L 207.945312 157.429688 C 207.1875 157.050781 206.808594 156.480469 206.808594 155.914062 C 206.808594 155.34375 207.1875 154.777344 207.945312 154.398438 L 224.984375 144.550781 C 225.929688 143.980469 227.066406 143.792969 228.203125 143.792969 C 229.527344 143.792969 230.664062 143.980469 231.417969 144.550781 L 248.644531 154.398438 C 249.402344 154.777344 249.78125 155.34375 249.78125 155.914062 C 249.78125 156.480469 249.402344 157.050781 248.644531 157.429688 L 231.609375 167.277344 C 230.851562 167.847656 229.714844 168.035156 228.390625 168.035156 Z M 228.390625 168.035156"/><path d="M 257.730469 185.082031 C 256.40625 185.082031 255.269531 184.890625 254.515625 184.324219 L 237.289062 174.476562 C 236.53125 174.097656 236.152344 173.527344 236.152344 172.960938 C 236.152344 172.390625 236.53125 171.824219 237.289062 171.445312 L 254.324219 161.59375 C 255.269531 161.027344 256.40625 160.839844 257.542969 160.839844 C 258.867188 160.839844 260.003906 161.027344 260.761719 161.59375 L 277.988281 171.445312 C 278.746094 171.824219 279.125 172.390625 279.125 172.960938 C 279.125 173.527344 278.746094 174.097656 277.988281 174.476562 L 260.949219 184.324219 C 260.191406 184.890625 259.058594 185.082031 257.730469 185.082031 Z M 257.730469 185.082031"/><path d="M 287.074219 202.128906 C 285.75 202.128906 284.613281 201.9375 283.855469 201.371094 L 266.628906 191.519531 C 265.871094 191.144531 265.492188 190.574219 265.492188 190.007812 C 265.492188 189.4375 265.871094 188.871094 266.628906 188.492188 L 283.667969 178.640625 C 284.613281 178.074219 285.75 177.882812 286.882812 177.882812 C 288.210938 177.882812 289.34375 178.074219 290.101562 178.640625 L 307.328125 188.492188 C 308.085938 188.871094 308.464844 189.4375 308.464844 190.007812 C 308.464844 190.574219 308.085938 191.144531 307.328125 191.519531 L 290.292969 201.371094 C 289.535156 201.75 288.398438 202.128906 287.074219 202.128906 Z M 287.074219 202.128906"/><path d="M 126.546875 76.363281 C 125.222656 76.363281 124.085938 76.175781 123.328125 75.605469 L 106.101562 65.757812 C 105.34375 65.378906 104.964844 64.808594 104.964844 64.242188 C 104.964844 63.671875 105.34375 63.105469 106.101562 62.726562 L 123.140625 52.878906 C 124.085938 52.308594 125.222656 52.121094 126.359375 52.121094 C 127.683594 52.121094 128.820312 52.308594 129.574219 52.878906 L 146.800781 62.726562 C 147.558594 63.105469 147.9375 63.671875 147.9375 64.242188 C 147.9375 64.808594 147.558594 65.378906 146.800781 65.757812 L 129.765625 75.605469 C 129.007812 75.984375 127.683594 76.363281 126.546875 76.363281 Z M 126.546875 76.363281"/><path d="M 155.886719 93.21875 C 154.5625 93.21875 153.425781 93.03125 152.671875 92.464844 L 135.445312 82.613281 C 134.6875 82.234375 134.308594 81.667969 134.308594 81.097656 C 134.308594 80.53125 134.6875 79.960938 135.445312 79.582031 L 152.480469 69.734375 C 153.425781 69.167969 154.5625 68.976562 155.699219 68.976562 C 157.023438 68.976562 158.160156 69.167969 158.917969 69.734375 L 176.144531 79.582031 C 176.902344 79.960938 177.28125 80.53125 177.28125 81.097656 C 177.28125 81.667969 176.902344 82.234375 176.144531 82.613281 L 159.105469 92.464844 C 158.347656 93.03125 157.214844 93.21875 155.886719 93.21875 Z M 155.886719 93.21875"/><path d="M 185.230469 110.265625 C 183.90625 110.265625 182.769531 110.078125 182.011719 109.507812 L 164.785156 99.660156 C 164.027344 99.28125 163.648438 98.714844 163.648438 98.144531 C 163.648438 97.578125 164.027344 97.007812 164.785156 96.628906 L 181.824219 86.78125 C 182.769531 86.210938 183.90625 86.023438 185.039062 86.023438 C 186.367188 86.023438 187.5 86.210938 188.257812 86.78125 L 205.484375 96.628906 C 206.242188 97.007812 206.621094 97.578125 206.621094 98.144531 C 206.621094 98.714844 206.242188 99.28125 205.484375 99.660156 L 188.449219 109.507812 C 187.691406 109.886719 186.554688 110.265625 185.230469 110.265625 Z M 185.230469 110.265625"/><path d="M 214.570312 127.125 C 213.246094 127.125 212.109375 126.933594 211.355469 126.367188 L 194.128906 116.515625 C 193.371094 116.136719 192.992188 115.570312 192.992188 115.003906 C 192.992188 114.433594 193.371094 113.867188 194.128906 113.488281 L 211.164062 103.636719 C 212.109375 103.070312 213.246094 102.878906 214.382812 102.878906 C 215.707031 102.878906 216.84375 103.070312 217.601562 103.636719 L 234.828125 113.488281 C 235.585938 113.867188 235.960938 114.433594 235.960938 115.003906 C 235.960938 115.570312 235.585938 116.136719 234.828125 116.515625 L 217.789062 126.367188 C 217.03125 126.933594 215.898438 127.125 214.570312 127.125 Z M 214.570312 127.125"/><path d="M 243.914062 144.171875 C 242.589844 144.171875 241.453125 143.980469 240.695312 143.414062 L 223.46875 133.5625 C 222.710938 133.183594 222.332031 132.617188 222.332031 132.046875 C 222.332031 131.480469 222.710938 130.910156 223.46875 130.535156 L 240.507812 120.683594 C 241.453125 120.117188 242.589844 119.925781 243.722656 119.925781 C 245.050781 119.925781 246.183594 120.117188 246.941406 120.683594 L 264.167969 130.535156 C 264.925781 130.910156 265.304688 131.480469 265.304688 132.046875 C 265.304688 132.617188 264.925781 133.183594 264.167969 133.5625 L 247.132812 143.414062 C 246.375 143.792969 245.238281 144.171875 243.914062 144.171875 Z M 243.914062 144.171875"/><path d="M 273.253906 161.027344 C 271.929688 161.027344 270.792969 160.839844 270.035156 160.269531 L 252.808594 150.421875 C 252.054688 150.042969 251.675781 149.472656 251.675781 148.90625 C 251.675781 148.335938 252.054688 147.769531 252.808594 147.390625 L 269.847656 137.542969 C 270.792969 136.972656 271.929688 136.785156 273.066406 136.785156 C 274.390625 136.785156 275.527344 136.972656 276.285156 137.542969 L 293.511719 147.390625 C 294.265625 147.769531 294.644531 148.335938 294.644531 148.90625 C 294.644531 149.472656 294.265625 150.042969 293.511719 150.421875 L 276.472656 160.269531 C 275.714844 160.839844 274.578125 161.027344 273.253906 161.027344 Z M 273.253906 161.027344"/><path d="M 302.597656 178.074219 C 301.269531 178.074219 300.136719 177.882812 299.378906 177.316406 L 282.152344 167.46875 C 281.394531 167.089844 281.015625 166.519531 281.015625 165.953125 C 281.015625 165.382812 281.394531 164.816406 282.152344 164.4375 L 299.1875 154.585938 C 300.136719 154.019531 301.269531 153.828125 302.40625 153.828125 C 303.730469 153.828125 304.867188 154.019531 305.625 154.585938 L 322.851562 164.4375 C 323.609375 164.816406 323.988281 165.382812 323.988281 165.953125 C 323.988281 166.519531 323.609375 167.089844 322.851562 167.46875 L 305.816406 177.316406 C 305.058594 177.695312 303.921875 178.074219 302.597656 178.074219 Z M 302.597656 178.074219"/><path d="M 109.132812 33.179688 C 107.804688 33.179688 106.671875 32.988281 105.914062 32.421875 L 88.6875 22.574219 C 87.929688 22.195312 87.550781 21.625 87.550781 21.058594 C 87.550781 20.488281 87.929688 19.921875 88.6875 19.542969 L 105.722656 9.691406 C 106.671875 9.125 107.804688 8.9375 108.941406 8.9375 C 110.265625 8.9375 111.402344 9.125 112.160156 9.691406 L 129.386719 19.542969 C 130.144531 19.921875 130.523438 20.488281 130.523438 21.058594 C 130.523438 21.625 130.144531 22.195312 129.386719 22.574219 L 112.347656 32.421875 C 111.59375 32.988281 110.457031 33.179688 109.132812 33.179688 Z M 109.132812 33.179688"/><path d="M 138.472656 50.226562 C 137.148438 50.226562 136.011719 50.035156 135.253906 49.46875 L 118.027344 39.617188 C 117.269531 39.242188 116.890625 38.671875 116.890625 38.105469 C 116.890625 37.535156 117.269531 36.96875 118.027344 36.589844 L 135.066406 26.738281 C 136.011719 26.171875 137.148438 25.980469 138.285156 25.980469 C 139.609375 25.980469 140.746094 26.171875 141.5 26.738281 L 158.726562 36.589844 C 159.484375 36.96875 159.863281 37.535156 159.863281 38.105469 C 159.863281 38.671875 159.484375 39.242188 158.726562 39.617188 L 141.691406 49.46875 C 140.933594 49.847656 139.796875 50.226562 138.472656 50.226562 Z M 138.472656 50.226562"/><path d="M 167.8125 67.082031 C 166.488281 67.082031 165.351562 66.894531 164.597656 66.324219 L 147.371094 56.476562 C 146.613281 56.097656 146.234375 55.527344 146.234375 54.960938 C 146.234375 54.394531 146.613281 53.824219 147.371094 53.445312 L 164.40625 43.597656 C 165.351562 43.027344 166.488281 42.839844 167.625 42.839844 C 168.949219 42.839844 170.085938 43.027344 170.84375 43.597656 L 188.070312 53.445312 C 188.828125 53.824219 189.207031 54.394531 189.207031 54.960938 C 189.207031 55.527344 188.828125 56.097656 188.070312 56.476562 L 171.03125 66.324219 C 170.273438 66.894531 169.140625 67.082031 167.8125 67.082031 Z M 167.8125 67.082031"/><path d="M 197.15625 84.128906 C 195.832031 84.128906 194.695312 83.941406 193.9375 83.371094 L 176.710938 73.523438 C 175.953125 73.144531 175.574219 72.574219 175.574219 72.007812 C 175.574219 71.4375 175.953125 70.871094 176.710938 70.492188 L 193.75 60.644531 C 194.695312 60.074219 195.832031 59.886719 196.964844 59.886719 C 198.292969 59.886719 199.425781 60.074219 200.183594 60.644531 L 217.410156 70.492188 C 218.167969 70.871094 218.546875 71.4375 218.546875 72.007812 C 218.546875 72.574219 218.167969 73.144531 217.410156 73.523438 L 200.375 83.371094 C 199.617188 83.941406 198.480469 84.128906 197.15625 84.128906 Z M 197.15625 84.128906"/><path d="M 226.496094 101.175781 C 225.171875 101.175781 224.035156 100.984375 223.28125 100.417969 L 206.054688 90.570312 C 205.296875 90.191406 204.917969 89.621094 204.917969 89.054688 C 204.917969 88.484375 205.296875 87.917969 206.054688 87.539062 L 223.089844 77.6875 C 224.035156 77.121094 225.171875 76.933594 226.308594 76.933594 C 227.632812 76.933594 228.769531 77.121094 229.527344 77.6875 L 246.753906 87.539062 C 247.511719 87.917969 247.886719 88.484375 247.886719 89.054688 C 247.886719 89.621094 247.511719 90.191406 246.753906 90.570312 L 229.714844 100.417969 C 228.957031 100.796875 227.824219 101.175781 226.496094 101.175781 Z M 226.496094 101.175781"/><path d="M 256.027344 118.03125 C 254.703125 118.03125 253.566406 117.84375 252.808594 117.273438 L 235.585938 107.425781 C 234.828125 107.046875 234.449219 106.480469 234.449219 105.910156 C 234.449219 105.34375 234.828125 104.773438 235.585938 104.394531 L 252.621094 94.546875 C 253.566406 93.976562 254.703125 93.789062 255.839844 93.789062 C 257.164062 93.789062 258.300781 93.976562 259.058594 94.546875 L 276.285156 104.394531 C 277.039062 104.773438 277.417969 105.34375 277.417969 105.910156 C 277.417969 106.480469 277.039062 107.046875 276.285156 107.425781 L 259.246094 117.273438 C 258.300781 117.84375 257.164062 118.03125 256.027344 118.03125 Z M 256.027344 118.03125"/><path d="M 285.371094 135.078125 C 284.046875 135.078125 282.910156 134.890625 282.152344 134.320312 L 264.925781 124.472656 C 264.167969 124.09375 263.789062 123.523438 263.789062 122.957031 C 263.789062 122.390625 264.167969 121.820312 264.925781 121.441406 L 281.960938 111.59375 C 282.910156 111.023438 284.046875 110.835938 285.179688 110.835938 C 286.507812 110.835938 287.640625 111.023438 288.398438 111.59375 L 305.625 121.441406 C 306.382812 121.820312 306.761719 122.390625 306.761719 122.957031 C 306.761719 123.523438 306.382812 124.09375 305.625 124.472656 L 288.589844 134.320312 C 287.832031 134.699219 286.507812 135.078125 285.371094 135.078125 Z M 285.371094 135.078125"/><path d="M 314.710938 151.9375 C 313.386719 151.9375 312.25 151.746094 311.492188 151.179688 L 294.265625 141.328125 C 293.511719 140.949219 293.132812 140.382812 293.132812 139.8125 C 293.132812 139.246094 293.511719 138.675781 294.265625 138.296875 L 311.304688 128.449219 C 312.25 127.882812 313.386719 127.691406 314.523438 127.691406 C 315.847656 127.691406 316.984375 127.882812 317.742188 128.449219 L 334.96875 138.296875 C 335.722656 138.675781 336.101562 139.246094 336.101562 139.8125 C 336.101562 140.382812 335.722656 140.949219 334.96875 141.328125 L 317.929688 151.179688 C 317.171875 151.746094 315.847656 151.9375 314.710938 151.9375 Z M 314.710938 151.9375"/><path d="M 344.054688 168.980469 C 342.726562 168.980469 341.59375 168.792969 340.835938 168.226562 L 323.609375 158.375 C 322.851562 157.996094 322.472656 157.429688 322.472656 156.859375 C 322.472656 156.292969 322.851562 155.722656 323.609375 155.34375 L 340.644531 145.496094 C 341.59375 144.929688 342.726562 144.738281 343.863281 144.738281 C 345.1875 144.738281 346.324219 144.929688 347.082031 145.496094 L 364.308594 155.34375 C 365.066406 155.722656 365.445312 156.292969 365.445312 156.859375 C 365.445312 157.429688 365.066406 157.996094 364.308594 158.375 L 347.273438 168.226562 C 346.515625 168.601562 345.378906 168.980469 344.054688 168.980469 Z M 344.054688 168.980469"/><path d="M 81.683594 83.371094 C 80.359375 83.371094 79.222656 83.183594 78.464844 82.613281 L 31.894531 55.71875 C 31.140625 55.339844 30.761719 54.769531 30.761719 54.203125 C 30.761719 53.636719 31.140625 53.066406 31.894531 52.6875 L 48.933594 42.839844 C 49.878906 42.269531 51.015625 42.082031 52.152344 42.082031 C 53.476562 42.082031 54.613281 42.269531 55.371094 42.839844 L 101.9375 69.734375 C 102.695312 70.113281 103.074219 70.679688 103.074219 71.25 C 103.074219 71.816406 102.695312 72.386719 101.9375 72.765625 L 84.902344 82.613281 C 83.953125 82.992188 82.816406 83.371094 81.683594 83.371094 Z M 81.683594 83.371094"/><path d="M 97.773438 59.695312 C 96.449219 59.695312 95.3125 59.507812 94.554688 58.9375 L 60.101562 39.050781 C 59.34375 38.671875 58.964844 38.105469 58.964844 37.535156 C 58.964844 36.96875 59.34375 36.398438 60.101562 36.019531 L 77.140625 26.171875 C 78.085938 25.601562 79.222656 25.414062 80.359375 25.414062 C 81.683594 25.414062 82.816406 25.601562 83.574219 26.171875 L 118.027344 46.058594 C 118.785156 46.4375 119.164062 47.007812 119.164062 47.574219 C 119.164062 48.140625 118.785156 48.710938 118.027344 49.089844 L 100.992188 58.9375 C 100.234375 59.507812 99.097656 59.695312 97.773438 59.695312 Z M 97.773438 59.695312"/><path d="M 332.882812 229.023438 C 331.558594 229.023438 330.421875 228.835938 329.667969 228.265625 L 295.214844 208.378906 C 294.457031 208 294.078125 207.429688 294.078125 206.863281 C 294.078125 206.296875 294.457031 205.726562 295.214844 205.347656 L 312.25 195.5 C 313.199219 194.929688 314.332031 194.742188 315.46875 194.742188 C 316.792969 194.742188 317.929688 194.929688 318.6875 195.5 L 353.140625 215.386719 C 353.898438 215.765625 354.277344 216.332031 354.277344 216.902344 C 354.277344 217.46875 353.898438 218.039062 353.140625 218.417969 L 336.101562 228.265625 C 335.34375 228.644531 334.210938 229.023438 332.882812 229.023438 Z M 332.882812 229.023438"/><path d="M 361.46875 211.976562 C 360.144531 211.976562 359.007812 211.789062 358.25 211.21875 L 311.683594 184.324219 C 310.925781 183.945312 310.546875 183.378906 310.546875 182.808594 C 310.546875 182.242188 310.925781 181.671875 311.683594 181.292969 L 328.71875 171.445312 C 329.667969 170.875 330.800781 170.6875 331.9375 170.6875 C 333.261719 170.6875 334.398438 170.875 335.15625 171.445312 L 381.722656 198.339844 C 382.480469 198.71875 382.859375 199.285156 382.859375 199.855469 C 382.859375 200.421875 382.480469 200.992188 381.722656 201.371094 L 364.6875 211.21875 C 363.742188 211.597656 362.605469 211.976562 361.46875 211.976562 Z M 361.46875 211.976562"/><path d="M 390.621094 195.878906 C 389.296875 195.878906 388.160156 195.6875 387.402344 195.121094 L 352.949219 175.234375 C 352.195312 174.855469 351.816406 174.285156 351.816406 173.71875 C 351.816406 173.148438 352.191406 172.582031 352.949219 172.203125 L 369.988281 162.351562 C 370.933594 161.785156 372.070312 161.59375 373.207031 161.59375 C 374.53125 161.59375 375.667969 161.785156 376.425781 162.351562 L 410.875 182.242188 C 411.632812 182.621094 412.011719 183.1875 412.011719 183.753906 C 412.011719 184.324219 411.632812 184.890625 410.875 185.269531 L 393.839844 195.121094 C 393.082031 195.5 391.757812 195.878906 390.621094 195.878906 Z M 390.621094 195.878906"/></g></g></g><path fill="#E4E1F9" d="M 695.609375 197.363281 L 373.230469 11.175781 C 371.527344 10.230469 369.824219 9.851562 368.117188 9.660156 L 363.007812 9.660156 C 358.085938 9.660156 354.679688 14.207031 352.40625 20.269531 L 596.605469 462.148438 C 598.5 463.285156 600.582031 463.664062 602.664062 463.476562 C 602.285156 463.476562 602.09375 463.476562 601.714844 463.476562 L 606.828125 463.476562 C 611.75 463.476562 616.292969 459.875 618.375 454.003906 L 701.476562 218.574219 C 704.695312 210.621094 701.855469 200.960938 695.609375 197.363281 Z M 695.609375 197.363281"/><path fill="#43455E" d="M 690.5 197.363281 C 696.746094 200.960938 699.585938 210.621094 696.746094 218.765625 L 613.640625 454.195312 C 610.800781 462.339844 603.230469 465.9375 596.984375 462.339844 L 274.792969 276.152344 C 268.546875 272.554688 265.707031 262.894531 268.546875 254.75 L 351.648438 19.320312 C 354.488281 11.175781 362.0625 7.578125 368.308594 11.175781 Z M 690.5 197.363281"/><path fill="#464EAB" d="M 681.601562 212.136719 L 601.148438 440.179688 L 284.636719 257.402344 L 365.089844 29.171875 Z M 681.601562 212.136719"/><path fill="#43455E" d="M 690.308594 211.1875 L 606.257812 449.269531 L 275.929688 258.351562 Z M 690.308594 211.1875" fill-opacity=".2"/><g mask="url(#e)"><g><g clip-path="url(#f)" transform="translate(373 90)"><path fill="#E4E1F9" d="M 62.511719 67.777344 L 58.535156 78.949219 L 50.015625 73.835938 L 53.992188 62.851562 Z M 62.511719 67.777344"/><path fill="#E4E1F9" d="M 68 52.433594 L 64.023438 63.421875 L 55.507812 58.496094 L 59.292969 47.511719 Z M 68 52.433594"/><path fill="#E4E1F9" d="M 73.300781 36.902344 L 69.515625 48.078125 L 60.804688 43.152344 L 64.78125 31.980469 Z M 73.300781 36.902344"/><path fill="#E4E1F9" d="M 78.789062 21.5625 L 74.816406 32.738281 L 66.296875 27.621094 L 70.269531 16.636719 Z M 78.789062 21.5625"/><path fill="#E4E1F9" d="M 84.28125 6.21875 L 80.304688 17.207031 L 71.785156 12.28125 L 75.570312 1.105469 Z M 84.28125 6.21875"/><path fill="#E4E1F9" d="M 57.019531 83.117188 L 53.234375 94.292969 L 44.527344 89.367188 L 48.5 78.195312 Z M 57.019531 83.117188"/><path fill="#E4E1F9" d="M 40.742188 129.332031 L 36.765625 140.507812 L 28.246094 135.582031 L 32.222656 124.410156 Z M 40.742188 129.332031"/><path fill="#E4E1F9" d="M 46.230469 113.992188 L 42.253906 125.164062 L 33.738281 120.050781 L 37.523438 109.066406 Z M 46.230469 113.992188"/><path fill="#E4E1F9" d="M 51.71875 98.648438 L 47.746094 109.632812 L 39.035156 104.710938 L 43.011719 93.726562 Z M 51.71875 98.648438"/><path fill="#E4E1F9" d="M 24.460938 175.546875 L 20.484375 186.722656 L 11.96875 181.796875 L 15.941406 170.621094 Z M 24.460938 175.546875"/><path fill="#E4E1F9" d="M 29.949219 160.207031 L 25.976562 171.378906 L 17.457031 166.265625 L 21.242188 155.28125 Z M 29.949219 160.207031"/><path fill="#E4E1F9" d="M 35.25 144.863281 L 31.464844 155.847656 L 22.757812 150.925781 L 26.730469 139.9375 Z M 35.25 144.863281"/><g clip-path="url(#g)"><path fill="#E4E1F9" d="M 13.671875 206.421875 L 9.695312 217.59375 L 0.988281 212.480469 L 4.960938 201.496094 Z M 13.671875 206.421875"/></g><path fill="#E4E1F9" d="M 18.972656 191.078125 L 15.183594 202.0625 L 6.476562 197.140625 L 10.453125 186.152344 Z M 18.972656 191.078125"/><path fill="#E4E1F9" d="M 177.792969 80.085938 L 173.820312 91.074219 L 84.847656 39.746094 L 88.824219 28.570312 Z M 177.792969 80.085938"/><path fill="#E4E1F9" d="M 100.558594 53.949219 L 96.585938 65.125 L 79.359375 55.085938 L 83.332031 44.101562 Z M 100.558594 53.949219"/><path fill="#E4E1F9" d="M 165.867188 54.707031 L 162.082031 65.691406 L 90.335938 24.402344 L 94.125 13.226562 Z M 165.867188 54.707031"/><path fill="#E4E1F9" d="M 175.523438 115.886719 L 171.546875 126.871094 L 82.574219 75.542969 L 86.550781 64.367188 Z M 175.523438 115.886719"/><path fill="#E4E1F9" d="M 78.789062 115.695312 L 74.816406 126.679688 L 57.589844 116.832031 L 61.5625 105.65625 Z M 78.789062 115.695312"/><path fill="#E4E1F9" d="M 119.300781 157.554688 L 115.324219 168.730469 L 52.289062 132.171875 L 56.074219 121 Z M 119.300781 157.554688"/><path fill="#E4E1F9" d="M 190.476562 161.53125 L 186.503906 172.707031 L 71.785156 106.414062 L 75.570312 95.238281 Z M 190.476562 161.53125"/><path fill="#E4E1F9" d="M 204.484375 151.113281 L 200.511719 162.289062 L 77.085938 90.882812 L 81.0625 79.898438 Z M 204.484375 151.113281"/><path fill="#E4E1F9" d="M 106.238281 224.222656 L 102.261719 235.210938 L 47.746094 203.769531 L 51.53125 192.59375 Z M 106.238281 224.222656"/><path fill="#E4E1F9" d="M 126.492188 254.527344 L 122.707031 265.515625 L 42.253906 219.109375 L 46.230469 208.125 Z M 126.492188 254.527344"/><path fill="#E4E1F9" d="M 174.199219 207.746094 L 170.222656 218.921875 L 55.316406 152.628906 L 59.292969 141.453125 Z M 174.199219 207.746094"/><path fill="#E4E1F9" d="M 177.226562 228.203125 L 173.441406 239.1875 L 50.015625 167.972656 L 53.800781 156.796875 Z M 177.226562 228.203125"/><path fill="#E4E1F9" d="M 197.671875 258.507812 L 193.695312 269.492188 L 44.527344 183.3125 L 48.5 172.328125 Z M 197.671875 258.507812"/><path fill="#E4E1F9" d="M 49.449219 228.390625 L 45.472656 239.566406 L 28.246094 229.527344 L 32.222656 218.542969 Z M 49.449219 228.390625"/></g></g></g><path fill="#E4E1F9" d="M 369.253906 92.054688 L 369.066406 101.902344 L 360.546875 96.976562 L 360.546875 87.128906 Z M 369.253906 92.054688"/><path fill="#E4E1F9" d="M 369.066406 119.515625 L 369.066406 129.554688 L 360.546875 124.441406 L 360.546875 114.59375 Z M 369.066406 119.515625"/><path fill="#E4E1F9" d="M 369.066406 105.878906 L 369.066406 115.730469 L 360.546875 110.804688 L 360.546875 100.765625 Z M 369.066406 105.878906"/><path fill="#E4E1F9" d="M 368.875 174.632812 L 368.875 184.480469 L 360.359375 179.558594 L 360.359375 169.707031 Z M 368.875 174.632812"/><path fill="#E4E1F9" d="M 369.066406 160.808594 L 368.875 170.84375 L 360.359375 165.730469 L 360.359375 155.882812 Z M 369.066406 160.808594"/><path fill="#E4E1F9" d="M 369.066406 147.167969 L 369.066406 157.019531 L 360.359375 152.09375 L 360.359375 142.246094 Z M 369.066406 147.167969"/><path fill="#E4E1F9" d="M 369.066406 133.34375 L 369.066406 143.191406 L 360.359375 138.269531 L 360.546875 128.417969 Z M 369.066406 133.34375"/><path fill="#E4E1F9" d="M 368.875 188.460938 L 368.875 198.308594 L 360.359375 193.382812 L 360.359375 183.535156 Z M 368.875 188.460938"/><path fill="#E4E1F9" d="M 368.6875 257.214844 L 368.6875 267.0625 L 360.167969 262.136719 L 360.167969 252.289062 Z M 368.6875 257.214844"/><path fill="#E4E1F9" d="M 368.6875 243.578125 L 368.6875 253.425781 L 360.167969 248.5 L 360.167969 238.460938 Z M 368.6875 243.578125"/><path fill="#E4E1F9" d="M 368.875 229.75 L 368.6875 239.597656 L 360.167969 234.675781 L 360.167969 224.824219 Z M 368.875 229.75"/><path fill="#E4E1F9" d="M 368.875 215.921875 L 368.875 225.773438 L 360.167969 220.847656 L 360.167969 211 Z M 368.875 215.921875"/><path fill="#E4E1F9" d="M 368.875 202.097656 L 368.875 212.136719 L 360.167969 207.019531 L 360.359375 197.171875 Z M 368.875 202.097656"/><path fill="#E4E1F9" d="M 368.6875 271.039062 L 368.6875 280.890625 L 359.980469 275.964844 L 360.167969 266.117188 Z M 368.6875 271.039062"/><path fill="#FEC9B7" d="M 396.703125 136.5625 L 396.703125 146.410156 L 379.476562 136.375 L 379.476562 126.523438 Z M 396.703125 136.5625"/><path fill="#FEC9B7" d="M 404.84375 292.820312 L 404.84375 302.859375 L 387.617188 292.820312 L 387.617188 282.972656 Z M 404.84375 292.820312"/><path fill="#FEC9B7" d="M 450.84375 291.875 L 450.84375 301.722656 L 396.324219 270.28125 L 396.324219 260.433594 Z M 450.84375 291.875"/><path fill="#FEC9B7" d="M 396.515625 191.492188 L 396.515625 201.527344 L 379.289062 191.492188 L 379.289062 181.640625 Z M 396.515625 191.492188"/><path fill="#E4E1F9" d="M 476.589844 320.664062 L 476.589844 330.511719 L 396.324219 284.109375 L 396.324219 274.070312 Z M 476.589844 320.664062"/><path fill="#FEC9B7" d="M 442.324219 231.832031 L 442.324219 241.683594 L 379.289062 205.316406 L 379.289062 195.46875 Z M 442.324219 231.832031"/><path fill="#FEC9B7" d="M 511.230469 299.261719 L 511.230469 309.109375 L 387.804688 237.703125 L 387.804688 227.855469 Z M 511.230469 299.261719"/><path fill="#E4E1F9" d="M 502.710938 280.511719 L 502.523438 290.359375 L 387.804688 224.066406 L 387.804688 214.03125 Z M 502.710938 280.511719"/><path fill="#E4E1F9" d="M 536.976562 327.863281 L 536.976562 337.710938 L 387.617188 251.53125 L 387.804688 241.683594 Z M 536.976562 327.863281"/><path fill="#FEC9B7" d="M 476.96875 196.605469 L 476.96875 206.644531 L 387.996094 155.125 L 387.996094 145.277344 Z M 476.96875 196.605469"/><path fill="#FEC9B7" d="M 502.710938 239.21875 L 502.710938 249.070312 L 387.996094 182.777344 L 387.996094 172.738281 Z M 502.710938 239.21875"/><path fill="#E4E1F9" d="M 511.417969 230.316406 L 511.417969 240.167969 L 387.996094 168.949219 L 387.996094 159.101562 Z M 511.417969 230.316406"/><path fill="#E4E1F9" d="M 468.449219 164.214844 L 468.449219 174.066406 L 379.476562 122.738281 L 379.476562 112.699219 Z M 468.449219 164.214844"/><path fill="#FEC9B7" d="M 451.222656 140.539062 L 451.222656 150.390625 L 379.476562 108.910156 L 379.476562 99.0625 Z M 451.222656 140.539062"/><path fill="#43455E" d="M 732.710938 551.359375 L 723.625 546.054688 C 724.382812 545.867188 725.140625 545.675781 725.898438 545.296875 C 728.359375 543.78125 728.359375 541.507812 725.898438 540.183594 L 646.769531 493.78125 C 645.066406 492.832031 642.605469 492.453125 640.332031 492.832031 L 640.144531 492.832031 C 639.953125 492.832031 639.765625 492.832031 639.578125 493.023438 L 635.410156 493.96875 L 635.03125 493.96875 C 634.464844 494.160156 633.707031 494.347656 633.328125 494.726562 C 630.867188 496.242188 630.867188 498.515625 633.328125 499.839844 L 712.457031 546.054688 C 714.160156 547.003906 716.8125 547.382812 718.894531 547.003906 L 731.007812 554.011719 C 734.039062 555.714844 735.742188 558.933594 735.929688 562.34375 C 735.929688 565.753906 734.226562 568.972656 731.386719 570.867188 L 724.003906 575.414062 C 713.78125 581.851562 700.910156 582.042969 690.308594 575.980469 L 588.464844 517.078125 L 591.304688 515.371094 C 593.578125 514.046875 593.578125 511.960938 591.304688 510.636719 L 573.699219 500.410156 L 556.664062 510.257812 L 574.269531 520.484375 C 576.539062 521.8125 580.136719 521.8125 582.40625 520.484375 L 584.867188 518.96875 L 688.414062 579.011719 C 694.09375 582.230469 700.34375 583.9375 706.589844 583.9375 C 713.214844 583.9375 719.839844 582.042969 725.707031 578.445312 L 733.089844 573.898438 C 737.066406 571.4375 739.339844 567.078125 739.339844 562.535156 C 739.148438 557.796875 736.6875 553.632812 732.710938 551.359375 Z M 732.710938 551.359375" fill-opacity=".047"/><path fill="#E4E1F9" d="M 711.511719 344.90625 L 655.476562 312.519531 C 653.394531 311.382812 651.691406 311.003906 650.175781 311.003906 C 648.472656 311.003906 647.335938 311.574219 646.582031 311.953125 L 646.011719 312.332031 C 645.824219 312.519531 645.632812 312.519531 645.632812 312.710938 C 642.414062 314.980469 642.414062 318.769531 642.226562 320.285156 L 641.847656 472.753906 C 641.847656 475.40625 642.605469 478.628906 644.308594 481.847656 C 646.011719 484.878906 648.472656 487.90625 651.882812 489.992188 L 707.914062 522.378906 C 712.644531 525.03125 715.675781 523.515625 716.621094 523.136719 L 716.8125 522.949219 L 717.191406 522.757812 C 717.378906 522.570312 717.570312 522.378906 717.757812 522.378906 C 720.597656 520.105469 720.785156 516.507812 720.785156 514.992188 L 721.164062 362.523438 C 721.355469 356.652344 718.324219 349.074219 711.511719 344.90625 Z M 711.511719 344.90625"/><path fill="#43455E" d="M 706.777344 350.96875 C 710.5625 353.050781 713.402344 358.355469 713.402344 362.523438 L 713.023438 511.203125 C 713.023438 515.371094 709.996094 517.078125 706.398438 514.992188 L 650.367188 482.605469 C 646.582031 480.519531 643.742188 475.21875 643.742188 471.050781 L 644.121094 322.367188 C 644.121094 318.203125 647.148438 316.308594 650.746094 318.582031 L 658.507812 323.125 C 659.640625 323.695312 660.398438 325.210938 660.398438 326.347656 L 660.398438 328.050781 C 660.398438 330.511719 662.101562 333.355469 664.183594 334.679688 L 693.148438 351.347656 C 695.230469 352.484375 696.933594 351.535156 696.933594 349.074219 L 696.933594 347.371094 C 696.933594 346.234375 697.882812 345.664062 698.828125 346.234375 Z M 706.777344 350.96875"/><path fill="#43455E" d="M 688.226562 341.6875 C 688.792969 342.066406 689.363281 343.015625 689.363281 343.582031 C 689.363281 344.339844 688.792969 344.527344 688.226562 344.148438 L 668.917969 332.976562 C 668.351562 332.597656 667.78125 331.648438 667.78125 331.082031 C 667.78125 330.324219 668.351562 330.132812 668.917969 330.511719 Z M 688.226562 341.6875" fill-opacity=".498"/><path fill="#FEC9B7" d="M 667.78125 464.992188 L 667.78125 482.226562 L 646.960938 470.105469 L 646.960938 452.867188 Z M 667.78125 464.992188"/><path fill="#FEC9B7" d="M 667.78125 442.449219 L 667.78125 459.6875 L 646.960938 447.566406 L 646.960938 430.328125 Z M 667.78125 442.449219"/><path fill="#E4E1F9" d="M 700.910156 426.351562 L 700.910156 432.035156 L 654.71875 405.328125 L 654.71875 399.644531 Z M 700.910156 426.351562"/><path fill="#FC5135" d="M 690.308594 431.84375 L 690.308594 443.019531 L 665.132812 428.625 L 665.132812 417.261719 Z M 690.308594 431.84375"/><path fill="#E4E1F9" d="M 705.832031 419.34375 L 705.832031 425.027344 L 649.796875 392.828125 L 649.796875 386.957031 Z M 705.832031 419.34375"/><path fill="#E4E1F9" d="M 704.507812 400.214844 L 704.507812 404.382812 L 670.621094 384.683594 L 670.621094 380.707031 Z M 704.507812 400.214844"/><path fill="#E4E1F9" d="M 701.097656 391.3125 L 701.097656 395.480469 L 670.621094 377.863281 L 670.621094 373.699219 Z M 701.097656 391.3125"/><path fill="#E4E1F9" d="M 708.101562 388.472656 L 708.101562 392.636719 L 670.621094 370.855469 L 670.621094 366.878906 Z M 708.101562 388.472656"/><path fill="#E4E1F9" d="M 674.027344 347.9375 L 674.027344 352.671875 L 646.769531 336.953125 L 646.769531 332.027344 Z M 674.027344 347.9375"/><path fill="#464EAB" d="M 655.855469 356.839844 C 660.777344 359.679688 664.753906 366.6875 664.753906 372.371094 C 664.753906 378.054688 660.777344 380.328125 655.667969 377.484375 C 650.746094 374.644531 646.769531 367.636719 646.769531 361.953125 C 646.769531 356.273438 650.746094 354 655.855469 356.839844 Z M 655.855469 356.839844"/><path fill="#E4E1F9" d="M 708.101562 371.046875 L 708.101562 372.941406 L 698.449219 367.445312 L 698.636719 365.363281 Z M 708.101562 371.046875"/><path fill="#E4E1F9" d="M 708.292969 366.878906 L 708.101562 368.960938 L 698.636719 363.46875 L 698.636719 361.386719 Z M 708.292969 366.878906"/><path fill="#E4E1F9" d="M 693.90625 467.640625 L 693.90625 471.808594 L 670.8125 458.550781 L 670.8125 454.195312 Z M 693.90625 467.640625"/><path fill="#E4E1F9" d="M 706.210938 467.453125 L 706.210938 471.808594 L 670.8125 451.351562 L 670.8125 446.996094 Z M 706.210938 467.453125"/><path fill="#E4E1F9" d="M 697.3125 492.074219 L 697.3125 496.429688 L 670.8125 481.089844 L 670.8125 476.734375 Z M 697.3125 492.074219"/><path fill="#E4E1F9" d="M 687.847656 479.386719 L 687.847656 483.550781 L 670.8125 473.703125 L 670.8125 469.535156 Z M 687.847656 479.386719"/><path fill="#43455E" d="M 590.925781 498.703125 L 575.972656 492.453125 L 558.933594 497.757812 L 558.933594 503.4375 L 576.539062 513.667969 C 578.8125 514.992188 582.40625 514.992188 584.679688 513.667969 L 593.578125 508.554688 C 594.710938 507.984375 595.28125 507.039062 595.28125 506.28125 L 595.28125 500.597656 C 595.28125 500.789062 595.28125 500.789062 595.28125 500.976562 C 595.28125 499.839844 592.25 499.460938 590.925781 498.703125 Z M 590.925781 498.703125"/><path fill="#E4E1F9" d="M 593.578125 498.136719 C 595.847656 499.460938 595.847656 501.546875 593.578125 502.871094 L 584.679688 507.984375 C 582.40625 509.3125 578.8125 509.3125 576.539062 507.984375 L 558.933594 497.757812 L 575.972656 487.90625 Z M 593.578125 498.136719"/><path fill="#464EAB" d="M 706.398438 572.570312 C 700.152344 572.570312 693.90625 570.867188 688.226562 567.648438 L 588.84375 509.878906 C 588.085938 509.3125 587.707031 508.363281 588.277344 507.605469 C 588.84375 506.847656 589.789062 506.46875 590.546875 507.039062 L 689.929688 564.804688 C 699.964844 570.679688 712.648438 570.679688 722.679688 564.804688 L 734.417969 557.988281 C 744.449219 552.117188 750.695312 541.320312 750.695312 529.765625 L 750.695312 417.449219 C 750.695312 405.707031 744.449219 394.910156 734.417969 389.226562 L 717.570312 379.378906 C 716.8125 378.8125 716.433594 377.863281 717 377.105469 C 717.570312 376.347656 718.515625 375.96875 719.273438 376.539062 L 736.121094 386.386719 C 747.289062 392.828125 754.101562 404.757812 754.101562 417.640625 L 754.101562 529.957031 C 754.101562 542.835938 747.289062 554.769531 736.121094 561.207031 L 724.382812 568.027344 C 718.894531 570.867188 712.644531 572.570312 706.398438 572.570312 Z M 706.398438 572.570312"/><path fill="#43455E" d="M 201.914062 284.488281 C 201.722656 284.109375 201.34375 283.917969 200.964844 283.917969 L 172.191406 289.414062 L 41.574219 355.894531 C 37.601562 357.789062 34.570312 361.765625 34.570312 366.5 C 34.382812 373.128906 39.683594 378.621094 46.308594 378.8125 C 48.769531 378.8125 51.230469 378.242188 53.121094 376.917969 L 179.765625 303.238281 L 201.914062 285.625 C 202.101562 285.054688 202.101562 284.675781 201.914062 284.488281 Z M 201.914062 284.488281" fill-opacity=".047"/><g clip-path="url(#h)"><path fill="#E4E1F9" d="M 197.371094 279.753906 C 197.179688 279.375 196.800781 279.183594 196.421875 279.183594 L 167.460938 286.949219 L 36.84375 353.429688 C 32.867188 355.324219 29.839844 359.300781 29.839844 364.039062 C 29.648438 370.667969 34.949219 376.160156 41.574219 376.347656 C 44.035156 376.347656 46.496094 375.78125 48.390625 374.453125 L 175.03125 300.777344 L 197.179688 280.699219 C 197.558594 280.511719 197.558594 280.132812 197.371094 279.753906 Z M 197.371094 279.753906"/></g><path fill="#FEC9B7" d="M 197.371094 279.753906 C 197.179688 279.375 196.800781 279.183594 196.421875 279.183594 L 193.960938 279.753906 C 194.152344 280.699219 194.71875 281.648438 195.476562 282.214844 L 197.179688 280.699219 C 197.558594 280.511719 197.558594 280.132812 197.371094 279.753906 Z M 197.371094 279.753906"/><path fill="#43455E" d="M 37.976562 350.210938 L 37.976562 352.484375 C 37.976562 353.242188 38.355469 353.808594 39.304688 354.378906 L 43.277344 356.839844 C 44.984375 357.976562 48.011719 357.976562 49.714844 357.03125 L 101.773438 328.617188 C 102.71875 328.050781 103.097656 327.484375 103.097656 326.726562 L 103.097656 324.453125 L 103.097656 324.640625 C 103.289062 323.882812 38.167969 349.453125 37.976562 350.210938 Z M 37.976562 350.210938"/><path fill="#464EAB" d="M 101.960938 322.558594 C 103.664062 323.695312 103.664062 325.398438 101.960938 326.347656 L 49.90625 354.757812 C 48.199219 355.703125 45.171875 355.703125 43.46875 354.566406 L 39.492188 352.105469 C 37.789062 350.96875 37.789062 349.265625 39.492188 348.316406 L 91.550781 319.90625 C 93.253906 318.960938 96.28125 318.960938 97.988281 320.097656 Z M 101.960938 322.558594"/><path fill="#43455E" d="M 513.503906 592.460938 C 504.414062 591.324219 499.871094 590.753906 495.519531 589.238281 C 494.761719 589.050781 488.894531 586.964844 480.941406 585.640625 C 477.722656 585.074219 475.832031 584.882812 473.9375 585.640625 C 469.585938 587.34375 466.367188 592.460938 467.691406 595.488281 C 468.257812 597.003906 469.773438 597.003906 476.589844 599.65625 C 479.617188 600.792969 482.835938 601.929688 485.484375 603.253906 C 489.273438 605.148438 491.164062 606.855469 496.085938 611.019531 C 500.25 614.429688 506.121094 619.355469 509.148438 621.628906 C 514.257812 625.605469 518.800781 628.066406 527.890625 632.800781 C 542.65625 640.566406 550.039062 644.546875 556.472656 645.871094 C 568.210938 648.144531 581.839844 647.007812 583.355469 642.273438 C 584.300781 639.242188 579.378906 637.539062 578.621094 630.53125 C 578.242188 627.5 579.1875 626.742188 579.757812 618.21875 C 579.945312 614.808594 579.945312 613.105469 579.757812 611.96875 C 578.8125 607.992188 575.972656 604.960938 571.617188 602.117188 C 561.207031 595.109375 549.28125 593.40625 546.820312 593.027344 C 532.054688 591.132812 531.105469 594.542969 513.503906 592.460938 Z M 513.503906 592.460938" fill-opacity=".047"/><path fill="#E4E1F9" d="M 548.523438 427.296875 C 549.46875 427.867188 551.929688 429.382812 553.824219 432.222656 C 554.769531 433.738281 556.285156 436.199219 555.527344 438.285156 C 554.390625 441.316406 547.953125 441.316406 545.492188 441.316406 C 541.898438 441.316406 536.785156 441.316406 533.378906 437.527344 C 533 436.957031 529.402344 433.359375 530.539062 430.140625 C 531.863281 425.40625 542.085938 423.890625 548.523438 427.296875 Z M 548.523438 427.296875"/><path fill="#E4E1F9" d="M 551.929688 433.171875 C 551.742188 433.550781 551.363281 433.929688 550.984375 434.308594 C 550.414062 434.6875 549.660156 434.6875 549.089844 435.0625 C 546.25 436.199219 543.601562 435.820312 541.707031 435.441406 C 539.4375 435.0625 537.164062 434.6875 535.082031 432.601562 C 534.515625 432.035156 533.1875 431.277344 532.8125 430.140625 C 532.8125 429.761719 532.621094 429.382812 532.8125 429.003906 C 532.8125 428.246094 533.1875 427.867188 533.757812 427.296875 C 534.324219 426.730469 534.894531 426.542969 535.273438 426.164062 C 539.058594 423.890625 545.492188 423.699219 549.46875 427.296875 C 549.46875 427.296875 550.414062 428.246094 551.363281 429.382812 C 551.929688 430.519531 552.496094 432.035156 551.929688 433.171875 Z M 551.929688 433.171875"/><path fill="#43455E" d="M 578.054688 611.777344 C 577.863281 611.019531 577.484375 610.261719 577.105469 609.695312 C 576.160156 608.558594 575.023438 607.992188 574.644531 607.800781 C 572.941406 607.042969 571.238281 607.042969 570.101562 607.234375 C 565.179688 607.992188 561.207031 610.074219 559.125 611.210938 C 548.144531 617.269531 545.871094 617.269531 544.738281 620.492188 C 544.359375 621.4375 544.359375 622.386719 544.359375 623.523438 C 544.359375 624.660156 544.738281 625.792969 545.492188 626.742188 C 547.578125 629.582031 551.742188 629.394531 553.066406 629.394531 C 555.90625 629.203125 558.175781 628.066406 559.125 627.5 C 559.125 626.742188 559.125 626.171875 558.933594 625.414062 C 559.691406 625.414062 561.015625 625.226562 562.339844 625.035156 C 566.695312 624.46875 569.722656 624.089844 572.375 621.816406 C 573.511719 620.871094 574.078125 619.921875 575.402344 618.027344 C 577.484375 615.1875 578.433594 613.671875 578.054688 611.777344 Z M 578.054688 611.777344"/><path fill="#43455E" d="M 547.199219 592.839844 C 547.007812 592.082031 546.628906 591.324219 546.25 590.753906 C 545.304688 589.617188 544.167969 589.050781 543.789062 588.859375 C 542.085938 588.101562 540.382812 588.101562 539.246094 588.292969 C 534.324219 589.050781 530.351562 591.132812 528.269531 592.269531 C 517.289062 598.332031 515.015625 598.332031 513.878906 601.550781 C 513.503906 602.496094 513.503906 603.445312 513.503906 604.582031 C 513.503906 605.71875 513.878906 606.855469 514.636719 607.800781 C 516.71875 610.640625 520.886719 610.453125 522.210938 610.453125 C 525.050781 610.261719 527.320312 609.128906 528.269531 608.558594 C 528.269531 607.800781 528.269531 607.234375 528.078125 606.476562 C 528.835938 606.476562 530.160156 606.285156 531.484375 606.097656 C 535.839844 605.527344 538.867188 605.148438 541.519531 602.875 C 542.65625 601.929688 543.222656 600.984375 544.546875 599.089844 C 546.441406 596.246094 547.574219 594.730469 547.199219 592.839844 Z M 547.199219 592.839844"/><path fill="#464EAB" d="M 519.9375 508.933594 C 520.507812 522.757812 519.179688 533.554688 517.855469 540.753906 C 516.152344 549.464844 514.828125 551.738281 513.878906 560.449219 C 512.933594 568.785156 513.878906 569.730469 513.878906 586.019531 C 513.878906 600.984375 513.125 605.527344 515.773438 606.855469 C 519.9375 608.9375 528.265625 601.363281 529.214844 600.414062 C 530.917969 598.710938 532.433594 597.382812 533.378906 595.300781 C 535.648438 590.1875 533.378906 585.640625 532.433594 579.769531 C 531.675781 575.222656 532.433594 570.679688 533.945312 561.398438 C 536.597656 545.488281 540.949219 542.265625 543.410156 529.957031 C 544.738281 523.515625 545.683594 514.234375 543.410156 502.304688 C 538.867188 500.597656 534.136719 498.703125 529.59375 497 C 526.183594 501.167969 523.15625 504.953125 519.9375 508.933594 Z M 519.9375 508.933594"/><path fill="#464EAB" d="M 533.757812 511.203125 C 535.082031 515.183594 536.976562 520.484375 538.679688 527.113281 C 542.65625 542.835938 543.03125 555.335938 543.222656 559.882812 C 543.410156 568.027344 542.65625 568.027344 542.085938 582.042969 C 540.949219 604.390625 540.195312 623.144531 546.820312 625.605469 C 548.902344 626.363281 550.984375 625.226562 553.824219 623.902344 C 557.988281 621.816406 562.71875 617.460938 563.476562 611.96875 C 564.046875 607.613281 561.773438 607.234375 560.636719 600.414062 C 559.878906 596.058594 560.636719 593.976562 561.394531 585.640625 C 562.339844 576.738281 561.773438 576.171875 562.53125 569.164062 C 563.476562 558.175781 565.371094 552.496094 566.316406 546.246094 C 567.640625 538.289062 568.589844 526.546875 565.371094 511.015625 C 554.769531 510.824219 544.167969 511.015625 533.757812 511.203125 Z M 533.757812 511.203125"/><path fill="#FEC9B7" d="M 515.394531 481.847656 C 515.964844 487.53125 524.480469 491.316406 528.265625 489.234375 C 529.972656 488.285156 530.351562 486.203125 530.539062 485.636719 C 531.296875 482.226562 528.457031 479.195312 526.941406 477.492188 C 525.050781 475.597656 523.34375 473.703125 521.074219 473.890625 C 517.855469 474.269531 515.207031 478.4375 515.394531 481.847656 Z M 515.394531 481.847656"/><path fill="#E4E1F9" d="M 513.3125 481.277344 C 513.503906 482.226562 514.070312 483.171875 515.207031 483.550781 C 518.992188 485.066406 526.183594 477.679688 524.859375 474.839844 C 524.480469 473.890625 523.15625 473.511719 522.777344 473.324219 C 518.425781 472.1875 512.367188 477.679688 513.3125 481.277344 Z M 513.3125 481.277344"/><path fill="#43455E" d="M 517.855469 462.527344 C 515.964844 459.875 513.503906 455.898438 511.042969 450.59375 C 515.585938 448.511719 517.855469 447.1875 518.613281 446.617188 C 525.238281 439.800781 522.777344 428.054688 522.210938 425.785156 C 521.453125 425.785156 520.316406 425.59375 518.992188 425.785156 C 514.449219 426.542969 512.367188 429.949219 508.582031 433.550781 C 501.386719 440.746094 497.601562 439.800781 494.761719 445.480469 C 494.191406 446.808594 492.679688 449.839844 493.816406 453.246094 C 494.003906 453.816406 494.382812 454.574219 494.761719 454.953125 C 496.464844 457.601562 500.820312 461.582031 505.171875 470.292969 C 508.203125 476.355469 509.527344 481.46875 513.125 481.847656 C 515.015625 482.035156 516.71875 481.089844 518.421875 479.953125 C 519.558594 479.195312 523.15625 477.113281 523.914062 473.890625 C 524.480469 471.050781 521.832031 468.398438 517.855469 462.527344 Z M 517.855469 462.527344"/><path fill="#FEC9B7" d="M 550.605469 431.277344 C 550.414062 432.792969 550.792969 433.550781 551.171875 434.308594 C 550.605469 434.6875 549.847656 435.0625 549.28125 435.253906 C 546.441406 436.390625 543.789062 436.011719 541.898438 435.632812 C 539.625 435.253906 537.164062 434.875 535.082031 432.792969 C 534.515625 432.222656 533.378906 431.277344 533 429.949219 C 533.378906 429.761719 533.566406 429.382812 533.757812 429.003906 C 534.136719 428.433594 533.945312 427.675781 533.945312 427.109375 C 533.757812 426.164062 533 425.027344 533.1875 423.699219 C 533.757812 418.777344 543.410156 412.902344 549.847656 416.3125 C 552.496094 417.640625 555.148438 421.046875 554.582031 423.890625 C 554.203125 426.164062 552.308594 426.921875 551.363281 429.003906 C 550.792969 429.949219 550.605469 430.519531 550.605469 431.277344 Z M 550.605469 431.277344"/><path fill="#43455E" d="M 564.613281 517.078125 C 560.636719 521.8125 553.632812 522.191406 547.574219 522.378906 C 544.167969 522.570312 532.054688 522.949219 529.59375 517.265625 C 528.835938 515.75 529.023438 513.667969 529.402344 509.3125 C 529.59375 506.660156 529.972656 504.386719 530.351562 502.683594 C 529.59375 503.628906 528.835938 505.144531 528.078125 506.847656 C 526.183594 511.203125 526.5625 514.046875 525.050781 514.425781 C 523.34375 514.992188 520.882812 511.773438 520.695312 511.394531 C 518.421875 508.363281 518.421875 505.144531 518.421875 503.4375 C 518.421875 496.050781 519.75 489.992188 520.128906 487.90625 C 522.777344 475.027344 520.316406 464.042969 519.558594 460.445312 C 518.234375 454.761719 517.476562 451.164062 515.394531 446.617188 C 514.070312 443.585938 513.125 442.640625 512.746094 439.988281 C 512.554688 439.230469 511.609375 432.222656 516.152344 428.054688 C 516.71875 427.488281 518.046875 426.351562 519.9375 425.785156 C 522.210938 425.027344 523.722656 425.59375 527.511719 425.785156 C 528.078125 425.785156 528.835938 425.972656 529.59375 425.972656 C 530.917969 425.972656 532.242188 426.164062 533.945312 425.972656 C 533.566406 426.164062 530.351562 427.867188 530.351562 429.949219 C 530.351562 431.464844 531.675781 432.414062 533.757812 433.738281 C 535.648438 434.875 538.109375 436.769531 541.328125 437.527344 C 549.847656 439.609375 553.632812 435.253906 558.175781 438.285156 C 560.257812 439.800781 561.394531 442.261719 561.394531 442.449219 C 561.964844 443.398438 563.289062 444.722656 563.476562 446.429688 C 563.667969 447.1875 563.855469 448.132812 563.855469 449.082031 C 565.179688 460.253906 565.371094 487.152344 565.9375 500.03125 C 566.886719 509.3125 567.640625 513.289062 564.613281 517.078125 Z M 564.613281 517.078125"/><path fill="#FEC9B7" d="M 561.585938 523.328125 C 561.207031 524.464844 561.015625 525.976562 560.828125 527.871094 C 560.828125 529.578125 561.015625 531.09375 561.207031 532.230469 C 560.828125 531.472656 560.257812 530.714844 560.070312 530.902344 C 559.503906 531.09375 559.125 533.363281 559.878906 535.257812 C 561.207031 538.101562 565.179688 538.859375 568.210938 538.289062 C 568.777344 538.101562 571.617188 537.53125 572.375 535.828125 C 572.5625 535.449219 572.5625 535.257812 572.5625 532.796875 C 572.5625 531.851562 572.5625 531.09375 572.5625 530.335938 C 572.941406 530.335938 573.320312 530.335938 573.699219 529.957031 C 573.890625 529.765625 574.269531 529.199219 574.078125 527.304688 C 573.890625 525.789062 573.699219 524.273438 572.753906 522.378906 C 572.183594 521.433594 571.808594 520.863281 571.238281 520.484375 C 568.019531 521.433594 564.800781 522.378906 561.585938 523.328125 Z M 561.585938 523.328125"/><path fill="#E4E1F9" d="M 560.636719 520.675781 C 559.691406 521.621094 559.878906 523.894531 560.828125 525.03125 C 563.097656 527.683594 571.050781 526.355469 572.941406 522.378906 C 573.511719 521.054688 573.699219 519.160156 572.941406 518.589844 C 571.996094 517.835938 570.480469 519.539062 567.074219 520.296875 C 563.476562 520.863281 561.773438 519.539062 560.636719 520.675781 Z M 560.636719 520.675781"/><path fill="#43455E" d="M 564.234375 450.972656 C 562.53125 451.542969 560.636719 452.300781 558.746094 453.246094 C 552.6875 456.46875 548.902344 461.203125 547.007812 464.234375 C 548.710938 467.832031 550.984375 473.703125 553.066406 481.089844 C 559.503906 505.332031 554.582031 521.433594 561.585938 524.652344 C 565.179688 526.355469 570.671875 523.894531 572.753906 520.675781 C 574.457031 518.023438 573.699219 515.183594 572.941406 510.070312 C 571.429688 500.597656 573.132812 503.816406 571.429688 492.074219 C 569.722656 480.332031 568.398438 477.679688 566.128906 464.234375 C 565.179688 458.550781 564.613281 453.816406 564.234375 450.972656 Z M 564.234375 450.972656"/><path fill="#43455E" d="M 564.234375 449.460938 C 563.476562 448.324219 563.289062 445.101562 560.636719 443.398438 C 558.933594 442.261719 557.230469 442.453125 556.09375 442.640625 C 554.011719 442.828125 539.625 443.398438 531.675781 437.335938 C 531.105469 436.957031 525.996094 432.980469 526.941406 429.382812 C 527.132812 428.8125 527.511719 427.488281 529.78125 426.164062 C 531.105469 426.164062 532.433594 426.351562 534.136719 426.164062 C 533.757812 426.351562 531.105469 427.867188 531.105469 429.949219 C 531.105469 430.519531 531.296875 431.84375 534.894531 434.117188 C 537.164062 435.632812 538.679688 436.578125 541.707031 437.335938 C 550.605469 439.609375 554.957031 434.875 559.3125 438.09375 C 560.257812 438.851562 561.964844 440.558594 562.910156 442.828125 C 563.476562 444.15625 563.855469 445.671875 564.046875 446.617188 C 564.046875 447.753906 564.046875 448.703125 564.234375 449.460938 Z M 564.234375 449.460938"/><path fill="#FEC9B7" d="M 554.769531 405.136719 C 555.527344 405.894531 557.609375 407.410156 558.367188 410.253906 C 558.746094 411.769531 558.367188 412.144531 558.554688 415.175781 C 558.746094 419.722656 559.503906 419.722656 559.125 421.617188 C 558.554688 424.269531 556.664062 426.542969 554.203125 427.867188 C 552.121094 428.8125 550.414062 428.625 549.46875 428.625 C 543.222656 428.246094 539.246094 422.5625 538.679688 421.804688 C 536.21875 418.207031 532.621094 409.875 537.164062 404.757812 C 541.707031 399.835938 550.605469 401.730469 554.769531 405.136719 Z M 554.769531 405.136719"/><path fill="#FC5135" d="M 557.230469 405.515625 C 557.230469 406.652344 556.472656 406.84375 555.148438 410.253906 C 554.582031 411.578125 554.390625 412.335938 554.203125 413.09375 C 553.824219 415.367188 554.582031 415.933594 554.203125 418.585938 C 554.203125 418.964844 553.824219 421.996094 552.875 422.183594 C 552.121094 422.183594 551.929688 420.859375 550.792969 420.667969 C 550.605469 420.667969 549.847656 420.667969 547.953125 422.941406 C 546.25 425.214844 546.441406 425.785156 545.304688 426.730469 C 544.359375 427.675781 543.03125 427.867188 540.761719 428.246094 C 538.488281 428.625 536.976562 428.8125 535.273438 428.246094 C 533.378906 427.675781 532.054688 426.351562 531.675781 425.785156 C 529.972656 424.078125 529.59375 422.183594 528.835938 418.964844 C 528.078125 415.554688 528.078125 412.902344 528.078125 411.199219 C 528.078125 409.683594 528.265625 408.546875 528.644531 407.03125 C 529.023438 405.894531 529.78125 403.433594 531.863281 401.730469 C 533.378906 400.59375 534.894531 400.214844 538.109375 399.457031 C 538.679688 399.265625 538.488281 399.457031 543.410156 398.507812 C 546.628906 397.941406 546.628906 397.941406 547.007812 397.941406 C 550.226562 397.941406 552.6875 399.644531 553.253906 400.023438 C 554.769531 400.78125 557.417969 402.867188 557.230469 405.515625 Z M 557.230469 405.515625"/><path fill="#43455E" d="M 422.257812 588.480469 C 422.070312 590.753906 421.5 592.648438 420.746094 594.355469 L 400.300781 606.285156 C 394.054688 609.882812 383.832031 609.882812 377.394531 606.285156 L 345.023438 587.535156 C 346.347656 582.800781 347.484375 578.253906 348.808594 573.519531 C 367.550781 553.632812 392.726562 549.085938 405.601562 557.796875 C 410.710938 561.398438 417.335938 569.164062 420.554688 578.445312 C 422.636719 584.125 422.449219 587.34375 422.257812 588.480469 Z M 422.257812 588.480469" fill-opacity=".047"/><path fill="#43455E" d="M 331.773438 632.800781 C 331.207031 630.910156 330.070312 629.203125 329.3125 628.257812 C 324.390625 628.066406 319.28125 627.6875 314.359375 627.5 C 313.410156 629.960938 312.464844 631.855469 311.707031 632.992188 C 309.246094 636.96875 306.785156 638.296875 306.21875 641.894531 L 306.21875 642.082031 C 306.027344 643.03125 306.027344 643.976562 306.40625 644.925781 C 307.730469 647.199219 311.898438 647.386719 314.359375 647.007812 C 319.28125 646.25 319.089844 643.410156 327.609375 638.863281 C 329.3125 637.917969 330.449219 637.347656 331.207031 636.402344 C 331.394531 636.210938 331.394531 636.023438 331.585938 635.644531 C 332.152344 634.886719 332.152344 633.9375 331.773438 632.800781 Z M 331.773438 632.800781"/><path fill="#43455E" d="M 407.871094 641.703125 C 407.683594 640.378906 407.304688 638.296875 407.304688 635.832031 C 403.328125 635.265625 399.355469 634.886719 395.378906 634.316406 C 395.1875 635.644531 394.808594 637.539062 395 640 C 395.1875 642.273438 395.566406 642.652344 395.757812 644.925781 C 395.945312 646.820312 395.757812 647.953125 395.566406 648.710938 C 395.566406 649.28125 395.378906 649.660156 395.378906 650.039062 C 395.378906 650.417969 395.566406 650.796875 395.757812 651.363281 C 396.894531 653.449219 399.164062 654.207031 399.921875 654.394531 C 402.003906 654.964844 405.222656 654.964844 407.113281 652.878906 C 408.25 651.554688 408.628906 650.039062 408.820312 648.710938 C 408.820312 648.523438 408.820312 648.144531 408.820312 647.953125 C 409.007812 645.683594 408.441406 644.734375 407.871094 641.703125 Z M 407.871094 641.703125"/><path fill="#464EAB" d="M 312.652344 627.6875 C 314.167969 628.824219 316.25 629.773438 318.523438 630.71875 C 324.578125 632.992188 330.070312 632.421875 333.097656 631.855469 C 332.71875 624.28125 334.042969 618.597656 335.179688 614.808594 C 337.453125 607.800781 340.101562 604.769531 343.699219 596.058594 C 346.160156 589.996094 347.484375 584.882812 348.242188 581.472656 C 351.648438 580.714844 355.246094 579.957031 359.03125 579.011719 C 368.117188 576.550781 376.070312 573.328125 382.695312 570.109375 C 380.234375 568.214844 377.207031 565.753906 374.367188 562.34375 C 369.632812 556.851562 367.171875 551.359375 365.847656 547.570312 C 362.25 549.273438 357.140625 551.925781 350.703125 555.335938 C 341.050781 560.449219 336.316406 563.101562 334.613281 564.617188 C 328.933594 570.109375 326.664062 579.011719 322.496094 596.625 C 320.984375 602.6875 320.605469 605.339844 318.710938 611.398438 C 316.820312 618.40625 314.359375 624.089844 312.652344 627.6875 Z M 312.652344 627.6875"/><path fill="#464EAB" d="M 367.929688 542.835938 C 366.035156 547.003906 366.035156 550.410156 366.226562 552.304688 C 367.550781 564.804688 383.074219 570.679688 383.640625 570.867188 C 385.15625 571.433594 386.480469 571.8125 387.617188 572.003906 C 388.183594 573.519531 388.941406 575.792969 389.699219 578.632812 C 391.78125 586.589844 391.78125 592.839844 391.972656 595.488281 C 392.160156 604.011719 392.917969 618.027344 394.242188 636.78125 C 397.082031 637.539062 400.867188 638.105469 405.222656 637.917969 C 407.492188 637.917969 409.386719 637.539062 411.089844 637.160156 C 411.089844 633.179688 411.089844 626.929688 411.089844 619.355469 C 411.089844 603.824219 411.28125 604.203125 411.28125 598.140625 C 410.902344 583.746094 409.953125 583.179688 410.332031 573.707031 C 410.710938 565.753906 411.46875 564.617188 410.902344 560.449219 C 409.765625 552.304688 405.222656 546.246094 401.4375 542.078125 C 390.265625 542.457031 379.097656 542.644531 367.929688 542.835938 Z M 367.929688 542.835938"/><path fill="#FEC9B7" d="M 376.636719 496.050781 C 372.285156 496.242188 370.203125 496.429688 368.875 497.757812 C 365.28125 501.355469 367.929688 513.097656 375.5 517.265625 C 381.179688 520.484375 387.425781 518.023438 388.5625 517.644531 C 389.886719 517.078125 396.515625 514.425781 398.21875 507.796875 C 398.40625 506.847656 399.542969 502.304688 397.082031 499.460938 C 396.136719 498.324219 395 498.136719 385.722656 496.808594 C 380.046875 496.050781 378.71875 495.863281 376.636719 496.050781 Z M 376.636719 496.050781"/><path fill="#43455E" d="M 376.636719 496.050781 C 372.285156 496.242188 370.203125 496.429688 368.875 497.757812 C 365.28125 501.355469 367.929688 513.097656 375.5 517.265625 C 381.179688 520.484375 387.425781 518.023438 388.5625 517.644531 C 389.886719 517.078125 396.515625 514.425781 398.21875 507.796875 C 398.40625 506.847656 399.542969 502.304688 397.082031 499.460938 C 396.136719 498.324219 395 498.136719 385.722656 496.808594 C 380.046875 496.050781 378.71875 495.863281 376.636719 496.050781 Z M 376.636719 496.050781" fill-opacity=".047"/><path fill="#FEC9B7" d="M 344.644531 520.863281 C 337.261719 525.601562 337.074219 529.007812 337.074219 530.335938 C 337.453125 536.015625 348.621094 542.265625 350.324219 543.214844 C 352.027344 544.160156 354.300781 545.109375 355.625 547.570312 C 356.949219 549.84375 356.382812 551.167969 357.898438 553.253906 C 358.277344 553.632812 359.789062 555.714844 362.441406 556.660156 C 366.035156 557.796875 370.957031 556.660156 371.714844 554.199219 C 372.664062 551.167969 367.171875 546.8125 364.902344 545.296875 C 363.007812 543.972656 362.820312 544.351562 360.925781 543.023438 C 358.652344 541.320312 357.519531 539.804688 354.679688 536.015625 C 353.542969 534.691406 352.027344 532.609375 349.945312 529.957031 C 350.703125 529.007812 351.648438 528.0625 352.40625 527.113281 C 349.945312 524.84375 347.296875 522.949219 344.644531 520.863281 Z M 344.644531 520.863281"/><path fill="#FC5135" d="M 408.441406 520.484375 C 411.46875 515.941406 415.253906 514.425781 414.875 510.636719 C 414.496094 504.765625 404.464844 499.652344 398.027344 498.515625 C 397.269531 498.324219 395.757812 498.136719 392.726562 497.757812 C 388.753906 497.1875 385.535156 496.808594 383.832031 496.621094 C 378.53125 495.671875 375.5 494.917969 370.578125 495.484375 C 367.550781 495.671875 365.28125 496.429688 363.574219 496.808594 C 363.386719 496.808594 363.007812 497 362.441406 497.1875 C 357.140625 499.082031 354.300781 503.25 349.945312 509.691406 C 346.539062 514.804688 343.699219 518.96875 342.183594 521.433594 C 343.511719 522.949219 345.214844 524.652344 347.484375 526.355469 C 349.378906 527.683594 351.082031 528.628906 352.597656 529.199219 C 354.488281 527.683594 357.328125 525.601562 360.925781 522.949219 C 363.007812 521.433594 363.765625 521.054688 364.332031 520.675781 C 366.035156 525.601562 367.363281 532.417969 366.226562 541.886719 C 366.605469 543.402344 367.363281 544.539062 368.117188 545.488281 C 377.207031 558.175781 406.925781 549.84375 409.386719 549.085938 C 403.519531 533.554688 405.410156 525.222656 408.441406 520.484375 Z M 388.375 515.5625 C 387.996094 515.75 382.507812 517.835938 377.585938 514.992188 C 373.609375 512.53125 372.472656 508.175781 372.09375 506.46875 C 371.527344 504.195312 370.957031 501.355469 372.285156 499.082031 C 375.125 494.917969 383.261719 496.621094 389.511719 497.945312 C 394.621094 498.894531 395.378906 500.03125 395.757812 500.410156 C 398.21875 504.007812 394.808594 512.71875 388.375 515.5625 Z M 388.375 515.5625"/><path fill="#FEC9B7" d="M 371.335938 494.539062 C 370.203125 496.621094 370.578125 498.894531 371.714844 503.25 C 372.664062 507.417969 373.417969 510.449219 375.878906 512.71875 C 376.636719 513.289062 378.53125 514.992188 380.992188 514.613281 C 381.371094 514.613281 381.75 514.425781 382.128906 514.234375 C 385.914062 512.53125 388.375 507.417969 388.375 507.039062 C 389.320312 504.765625 390.457031 501.167969 391.972656 500.410156 C 392.160156 500.410156 392.539062 500.21875 392.726562 499.652344 C 393.105469 499.082031 392.917969 498.703125 393.105469 497.945312 C 393.296875 496.621094 393.863281 496.621094 394.242188 495.105469 C 394.433594 494.347656 394.433594 493.78125 394.242188 493.402344 C 393.675781 493.023438 392.347656 493.78125 391.78125 493.96875 C 387.804688 495.863281 383.640625 489.992188 377.773438 490.558594 C 375.5 490.9375 372.664062 492.265625 371.335938 494.539062 Z M 371.335938 494.539062"/><path fill="#43455E" d="M 383.074219 477.871094 C 377.015625 477.300781 373.039062 482.605469 372.472656 483.363281 C 368.117188 489.234375 370.578125 496.242188 370.769531 496.808594 C 371.148438 496.621094 371.714844 496.242188 372.472656 496.242188 C 373.609375 496.429688 373.988281 497.566406 374.746094 498.324219 C 377.394531 500.597656 384.210938 495.484375 386.292969 497.757812 C 386.671875 498.136719 386.671875 498.703125 387.617188 499.460938 C 387.804688 499.652344 389.320312 500.789062 390.078125 500.21875 C 391.402344 499.652344 390.078125 496.621094 391.78125 494.539062 C 392.347656 493.96875 392.539062 493.96875 392.917969 493.402344 C 393.105469 493.023438 393.863281 491.886719 393.484375 489.234375 C 393.296875 488.285156 392.917969 486.203125 391.402344 483.929688 C 390.835938 482.605469 387.996094 478.4375 383.074219 477.871094 Z M 383.074219 477.871094"/><path fill="#43455E" d="M 413.171875 552.117188 L 413.742188 554.199219 L 406.925781 582.609375 L 404.652344 582.988281 Z M 413.171875 552.117188"/><path fill="#E4E1F9" d="M 405.980469 581.285156 L 413.171875 552.117188 L 356.570312 542.644531 L 344.265625 566.511719 Z M 405.980469 581.285156"/><path fill="#FEC9B7" d="M 364.710938 545.109375 C 362.820312 543.78125 362.628906 544.160156 360.734375 542.835938 C 359.410156 541.886719 358.652344 540.941406 357.519531 539.804688 L 344.835938 539.804688 C 347.296875 541.507812 349.378906 542.644531 350.136719 543.023438 C 351.839844 543.972656 354.109375 544.917969 355.4375 547.382812 C 356.761719 549.652344 356.191406 550.980469 357.707031 553.0625 C 358.085938 553.441406 359.601562 555.527344 362.25 556.472656 C 365.847656 557.609375 370.769531 556.472656 371.527344 554.011719 C 372.664062 550.980469 366.984375 546.625 364.710938 545.109375 Z M 364.710938 545.109375"/><path fill="#FEC9B7" d="M 405.601562 535.449219 C 406.359375 538.289062 406.925781 541.132812 407.683594 543.972656 C 405.410156 546.433594 403.519531 548.707031 402.382812 550.222656 C 400.679688 552.496094 400.109375 553.441406 398.40625 554.199219 C 396.515625 555.148438 395.566406 554.390625 393.484375 555.335938 C 391.023438 556.285156 389.320312 558.367188 389.511719 558.746094 C 389.886719 559.3125 392.917969 557.796875 393.105469 558.175781 C 393.296875 558.554688 389.132812 560.070312 388.753906 562.535156 C 388.375 564.617188 391.023438 567.648438 393.484375 568.027344 C 396.703125 568.40625 398.027344 564.425781 404.085938 558.554688 C 412.226562 550.789062 418.851562 549.84375 419.039062 544.917969 C 419.039062 543.78125 418.851562 541.128906 418.09375 538.667969 C 417.714844 536.964844 417.148438 535.636719 416.769531 534.691406 C 412.984375 535.070312 409.386719 535.257812 405.601562 535.449219 Z M 405.601562 535.449219"/><path fill="#FC5135" d="M 411.28125 505.144531 C 409.574219 505.144531 409.007812 507.417969 404.085938 515.183594 C 402.570312 517.644531 402.003906 518.402344 401.4375 520.105469 C 400.867188 522.191406 401.058594 523.894531 401.625 527.304688 C 402.191406 530.144531 402.949219 533.554688 404.085938 537.722656 C 405.601562 538.289062 408.25 538.859375 411.46875 538.667969 C 414.308594 538.480469 416.578125 537.53125 418.09375 536.773438 C 418.09375 534.691406 417.90625 531.660156 417.90625 528.0625 C 417.714844 523.328125 417.527344 520.675781 417.148438 517.457031 C 416.578125 512.910156 415.824219 510.636719 414.496094 508.554688 C 413.550781 506.847656 412.605469 505.332031 411.28125 505.144531 Z M 411.28125 505.144531"/><path fill="#464EAB" d="M 359.789062 565.183594 L 339.722656 544.351562 L 341.238281 542.644531 L 403.898438 553.0625 L 405.980469 581.285156 L 404.652344 582.988281 Z M 359.789062 565.183594"/><path fill="#43455E" d="M 339.722656 544.351562 C 340.480469 553.632812 341.238281 562.914062 341.996094 572.191406 C 362.820312 575.792969 383.640625 579.390625 404.464844 582.988281 C 403.707031 573.519531 403.140625 563.859375 402.382812 554.390625 C 381.558594 550.980469 360.738281 547.761719 339.722656 544.351562 Z M 339.722656 544.351562"/></svg>