<svg xmlns="http://www.w3.org/2000/svg" width="375" viewBox="0 0 375 75" height="75" version="1.0"><g fill-opacity=".729"><g><g><path d="M 25.46875 -4.1875 C 25.46875 -3.90625 25.382812 -3.710938 25.21875 -3.609375 C 25.050781 -3.503906 24.84375 -3.515625 24.59375 -3.640625 L 2.21875 -14.125 C 1.851562 -14.320312 1.671875 -14.609375 1.671875 -14.984375 L 1.671875 -19.984375 C 1.671875 -20.390625 1.851562 -20.675781 2.21875 -20.84375 L 24.59375 -31.390625 C 24.757812 -31.460938 24.882812 -31.5 24.96875 -31.5 C 25.300781 -31.5 25.46875 -31.273438 25.46875 -30.828125 L 25.46875 -25.59375 C 25.46875 -25.21875 25.28125 -24.925781 24.90625 -24.71875 L 8.9375 -17.703125 C 8.6875 -17.578125 8.6875 -17.453125 8.9375 -17.328125 L 24.90625 -10.296875 C 25.28125 -10.128906 25.46875 -9.84375 25.46875 -9.4375 Z M 25.46875 -4.1875" transform="translate(6.314 56.51)"/></g></g></g><g><g><g><path d="M 25.46875 -4.1875 C 25.46875 -3.90625 25.382812 -3.710938 25.21875 -3.609375 C 25.050781 -3.503906 24.84375 -3.515625 24.59375 -3.640625 L 2.21875 -14.125 C 1.851562 -14.320312 1.671875 -14.609375 1.671875 -14.984375 L 1.671875 -19.984375 C 1.671875 -20.390625 1.851562 -20.675781 2.21875 -20.84375 L 24.59375 -31.390625 C 24.757812 -31.460938 24.882812 -31.5 24.96875 -31.5 C 25.300781 -31.5 25.46875 -31.273438 25.46875 -30.828125 L 25.46875 -25.59375 C 25.46875 -25.21875 25.28125 -24.925781 24.90625 -24.71875 L 8.9375 -17.703125 C 8.6875 -17.578125 8.6875 -17.453125 8.9375 -17.328125 L 24.90625 -10.296875 C 25.28125 -10.128906 25.46875 -9.84375 25.46875 -9.4375 Z M 25.46875 -4.1875" transform="translate(4.678 54.874)"/></g></g></g><g fill-opacity=".729"><g><g><path d="M 13.25 0.5 C 9.882812 0.5 7.222656 -0.40625 5.265625 -2.21875 C 3.316406 -4.03125 2.34375 -6.476562 2.34375 -9.5625 L 2.34375 -22.015625 C 2.34375 -25.015625 3.316406 -27.425781 5.265625 -29.25 C 7.222656 -31.082031 9.882812 -32 13.25 -32 C 16.625 -32 19.296875 -31.101562 21.265625 -29.3125 C 23.242188 -27.53125 24.234375 -25.257812 24.234375 -22.5 L 24.234375 -21.640625 C 24.234375 -21.429688 24.160156 -21.253906 24.015625 -21.109375 C 23.867188 -20.972656 23.691406 -20.90625 23.484375 -20.90625 L 17.8125 -20.65625 C 17.320312 -20.65625 17.078125 -20.898438 17.078125 -21.390625 L 17.078125 -22.015625 C 17.078125 -23.035156 16.71875 -23.925781 16 -24.6875 C 15.28125 -25.445312 14.363281 -25.828125 13.25 -25.828125 C 12.144531 -25.828125 11.242188 -25.414062 10.546875 -24.59375 C 9.847656 -23.78125 9.5 -22.734375 9.5 -21.453125 L 9.5 -10.046875 C 9.5 -8.773438 9.847656 -7.726562 10.546875 -6.90625 C 11.242188 -6.082031 12.144531 -5.671875 13.25 -5.671875 C 14.363281 -5.671875 15.28125 -6.050781 16 -6.8125 C 16.71875 -7.570312 17.078125 -8.488281 17.078125 -9.5625 L 17.078125 -10.171875 C 17.078125 -10.378906 17.148438 -10.550781 17.296875 -10.6875 C 17.441406 -10.832031 17.613281 -10.90625 17.8125 -10.90625 L 23.484375 -10.84375 C 23.691406 -10.84375 23.867188 -10.769531 24.015625 -10.625 C 24.160156 -10.488281 24.234375 -10.316406 24.234375 -10.109375 L 24.234375 -9 C 24.234375 -6.164062 23.242188 -3.875 21.265625 -2.125 C 19.296875 -0.375 16.625 0.5 13.25 0.5 Z M 13.25 0.5" transform="translate(32.758 56.51)"/></g></g></g><g fill-opacity=".729"><g><g><path d="M 13.3125 0.5 C 9.90625 0.5 7.222656 -0.40625 5.265625 -2.21875 C 3.316406 -4.03125 2.34375 -6.476562 2.34375 -9.5625 L 2.34375 -21.953125 C 2.34375 -24.992188 3.328125 -27.425781 5.296875 -29.25 C 7.273438 -31.082031 9.945312 -32 13.3125 -32 C 16.726562 -32 19.421875 -31.082031 21.390625 -29.25 C 23.367188 -27.425781 24.359375 -24.992188 24.359375 -21.953125 L 24.359375 -9.5625 C 24.359375 -6.476562 23.378906 -4.03125 21.421875 -2.21875 C 19.472656 -0.40625 16.769531 0.5 13.3125 0.5 Z M 13.3125 -5.734375 C 14.46875 -5.734375 15.40625 -6.132812 16.125 -6.9375 C 16.84375 -7.738281 17.203125 -8.796875 17.203125 -10.109375 L 17.203125 -21.453125 C 17.203125 -22.734375 16.84375 -23.78125 16.125 -24.59375 C 15.40625 -25.414062 14.46875 -25.828125 13.3125 -25.828125 C 12.164062 -25.828125 11.242188 -25.425781 10.546875 -24.625 C 9.847656 -23.820312 9.5 -22.765625 9.5 -21.453125 L 9.5 -10.109375 C 9.5 -8.796875 9.847656 -7.738281 10.546875 -6.9375 C 11.242188 -6.132812 12.164062 -5.734375 13.3125 -5.734375 Z M 13.3125 -5.734375" transform="translate(58.163 56.51)"/></g></g></g><g fill-opacity=".729"><g><g><path d="M 16.953125 -42.421875 C 16.953125 -42.628906 17.023438 -42.800781 17.171875 -42.9375 C 17.316406 -43.082031 17.492188 -43.15625 17.703125 -43.15625 L 23.375 -43.15625 C 23.570312 -43.15625 23.742188 -43.082031 23.890625 -42.9375 C 24.035156 -42.800781 24.109375 -42.628906 24.109375 -42.421875 L 24.109375 -0.734375 C 24.109375 -0.535156 24.035156 -0.363281 23.890625 -0.21875 C 23.742188 -0.0703125 23.570312 0 23.375 0 L 17.703125 0 C 17.492188 0 17.316406 -0.0703125 17.171875 -0.21875 C 17.023438 -0.363281 16.953125 -0.535156 16.953125 -0.734375 L 16.953125 -1.484375 C 16.953125 -1.609375 16.910156 -1.6875 16.828125 -1.71875 C 16.742188 -1.757812 16.660156 -1.742188 16.578125 -1.671875 C 15.097656 -0.222656 13.25 0.5 11.03125 0.5 C 8.28125 0.5 6.144531 -0.40625 4.625 -2.21875 C 3.101562 -4.03125 2.34375 -6.457031 2.34375 -9.5 L 2.34375 -22.015625 C 2.34375 -25.140625 3.113281 -27.582031 4.65625 -29.34375 C 6.195312 -31.113281 8.320312 -32 11.03125 -32 C 11.976562 -32 12.941406 -31.820312 13.921875 -31.46875 C 14.910156 -31.125 15.796875 -30.5625 16.578125 -29.78125 C 16.660156 -29.695312 16.742188 -29.675781 16.828125 -29.71875 C 16.910156 -29.757812 16.953125 -29.84375 16.953125 -29.96875 Z M 13.25 -5.671875 C 14.238281 -5.671875 15.0625 -5.988281 15.71875 -6.625 C 16.375 -7.257812 16.785156 -8.113281 16.953125 -9.1875 L 16.953125 -22.3125 C 16.785156 -23.382812 16.375 -24.238281 15.71875 -24.875 C 15.0625 -25.507812 14.238281 -25.828125 13.25 -25.828125 C 12.101562 -25.828125 11.179688 -25.425781 10.484375 -24.625 C 9.785156 -23.820312 9.4375 -22.765625 9.4375 -21.453125 L 9.4375 -10.046875 C 9.4375 -8.734375 9.785156 -7.675781 10.484375 -6.875 C 11.179688 -6.070312 12.101562 -5.671875 13.25 -5.671875 Z M 13.25 -5.671875" transform="translate(84.185 56.51)"/></g></g></g><g fill-opacity=".729"><g><g><path d="M 24.171875 -13.875 C 24.171875 -13.664062 24.097656 -13.488281 23.953125 -13.34375 C 23.804688 -13.195312 23.628906 -13.125 23.421875 -13.125 L 9.796875 -13.125 C 9.597656 -13.125 9.5 -13.023438 9.5 -12.828125 L 9.5 -10.046875 C 9.5 -8.773438 9.847656 -7.726562 10.546875 -6.90625 C 11.242188 -6.082031 12.144531 -5.671875 13.25 -5.671875 C 14.195312 -5.671875 15.007812 -5.96875 15.6875 -6.5625 C 16.363281 -7.15625 16.804688 -7.925781 17.015625 -8.875 C 17.140625 -9.289062 17.40625 -9.5 17.8125 -9.5 L 23.3125 -9.25 C 23.507812 -9.25 23.679688 -9.175781 23.828125 -9.03125 C 23.972656 -8.882812 24.023438 -8.691406 23.984375 -8.453125 C 23.691406 -5.566406 22.640625 -3.351562 20.828125 -1.8125 C 19.023438 -0.269531 16.5 0.5 13.25 0.5 C 9.882812 0.5 7.222656 -0.394531 5.265625 -2.1875 C 3.316406 -3.976562 2.34375 -6.414062 2.34375 -9.5 L 2.34375 -22.015625 C 2.34375 -25.015625 3.316406 -27.425781 5.265625 -29.25 C 7.222656 -31.082031 9.882812 -32 13.25 -32 C 16.625 -32 19.285156 -31.082031 21.234375 -29.25 C 23.191406 -27.425781 24.171875 -25.015625 24.171875 -22.015625 Z M 13.25 -25.828125 C 12.144531 -25.828125 11.242188 -25.414062 10.546875 -24.59375 C 9.847656 -23.78125 9.5 -22.734375 9.5 -21.453125 L 9.5 -18.6875 C 9.5 -18.476562 9.597656 -18.375 9.796875 -18.375 L 16.765625 -18.375 C 16.972656 -18.375 17.078125 -18.476562 17.078125 -18.6875 L 17.078125 -21.453125 C 17.078125 -22.765625 16.726562 -23.820312 16.03125 -24.625 C 15.332031 -25.425781 14.40625 -25.828125 13.25 -25.828125 Z M 13.25 -25.828125" transform="translate(110.516 56.51)"/></g></g></g><g fill="#38B6FF"><g><g><path d="M 13.25 0.5 C 9.882812 0.5 7.222656 -0.40625 5.265625 -2.21875 C 3.316406 -4.03125 2.34375 -6.476562 2.34375 -9.5625 L 2.34375 -22.015625 C 2.34375 -25.015625 3.316406 -27.425781 5.265625 -29.25 C 7.222656 -31.082031 9.882812 -32 13.25 -32 C 16.625 -32 19.296875 -31.101562 21.265625 -29.3125 C 23.242188 -27.53125 24.234375 -25.257812 24.234375 -22.5 L 24.234375 -21.640625 C 24.234375 -21.429688 24.160156 -21.253906 24.015625 -21.109375 C 23.867188 -20.972656 23.691406 -20.90625 23.484375 -20.90625 L 17.8125 -20.65625 C 17.320312 -20.65625 17.078125 -20.898438 17.078125 -21.390625 L 17.078125 -22.015625 C 17.078125 -23.035156 16.71875 -23.925781 16 -24.6875 C 15.28125 -25.445312 14.363281 -25.828125 13.25 -25.828125 C 12.144531 -25.828125 11.242188 -25.414062 10.546875 -24.59375 C 9.847656 -23.78125 9.5 -22.734375 9.5 -21.453125 L 9.5 -10.046875 C 9.5 -8.773438 9.847656 -7.726562 10.546875 -6.90625 C 11.242188 -6.082031 12.144531 -5.671875 13.25 -5.671875 C 14.363281 -5.671875 15.28125 -6.050781 16 -6.8125 C 16.71875 -7.570312 17.078125 -8.488281 17.078125 -9.5625 L 17.078125 -10.171875 C 17.078125 -10.378906 17.148438 -10.550781 17.296875 -10.6875 C 17.441406 -10.832031 17.613281 -10.90625 17.8125 -10.90625 L 23.484375 -10.84375 C 23.691406 -10.84375 23.867188 -10.769531 24.015625 -10.625 C 24.160156 -10.488281 24.234375 -10.316406 24.234375 -10.109375 L 24.234375 -9 C 24.234375 -6.164062 23.242188 -3.875 21.265625 -2.125 C 19.296875 -0.375 16.625 0.5 13.25 0.5 Z M 13.25 0.5" transform="translate(31.123 54.874)"/></g></g></g><g fill="#38B6FF"><g><g><path d="M 13.3125 0.5 C 9.90625 0.5 7.222656 -0.40625 5.265625 -2.21875 C 3.316406 -4.03125 2.34375 -6.476562 2.34375 -9.5625 L 2.34375 -21.953125 C 2.34375 -24.992188 3.328125 -27.425781 5.296875 -29.25 C 7.273438 -31.082031 9.945312 -32 13.3125 -32 C 16.726562 -32 19.421875 -31.082031 21.390625 -29.25 C 23.367188 -27.425781 24.359375 -24.992188 24.359375 -21.953125 L 24.359375 -9.5625 C 24.359375 -6.476562 23.378906 -4.03125 21.421875 -2.21875 C 19.472656 -0.40625 16.769531 0.5 13.3125 0.5 Z M 13.3125 -5.734375 C 14.46875 -5.734375 15.40625 -6.132812 16.125 -6.9375 C 16.84375 -7.738281 17.203125 -8.796875 17.203125 -10.109375 L 17.203125 -21.453125 C 17.203125 -22.734375 16.84375 -23.78125 16.125 -24.59375 C 15.40625 -25.414062 14.46875 -25.828125 13.3125 -25.828125 C 12.164062 -25.828125 11.242188 -25.425781 10.546875 -24.625 C 9.847656 -23.820312 9.5 -22.765625 9.5 -21.453125 L 9.5 -10.109375 C 9.5 -8.796875 9.847656 -7.738281 10.546875 -6.9375 C 11.242188 -6.132812 12.164062 -5.734375 13.3125 -5.734375 Z M 13.3125 -5.734375" transform="translate(56.528 54.874)"/></g></g></g><g fill="#38B6FF"><g><g><path d="M 16.953125 -42.421875 C 16.953125 -42.628906 17.023438 -42.800781 17.171875 -42.9375 C 17.316406 -43.082031 17.492188 -43.15625 17.703125 -43.15625 L 23.375 -43.15625 C 23.570312 -43.15625 23.742188 -43.082031 23.890625 -42.9375 C 24.035156 -42.800781 24.109375 -42.628906 24.109375 -42.421875 L 24.109375 -0.734375 C 24.109375 -0.535156 24.035156 -0.363281 23.890625 -0.21875 C 23.742188 -0.0703125 23.570312 0 23.375 0 L 17.703125 0 C 17.492188 0 17.316406 -0.0703125 17.171875 -0.21875 C 17.023438 -0.363281 16.953125 -0.535156 16.953125 -0.734375 L 16.953125 -1.484375 C 16.953125 -1.609375 16.910156 -1.6875 16.828125 -1.71875 C 16.742188 -1.757812 16.660156 -1.742188 16.578125 -1.671875 C 15.097656 -0.222656 13.25 0.5 11.03125 0.5 C 8.28125 0.5 6.144531 -0.40625 4.625 -2.21875 C 3.101562 -4.03125 2.34375 -6.457031 2.34375 -9.5 L 2.34375 -22.015625 C 2.34375 -25.140625 3.113281 -27.582031 4.65625 -29.34375 C 6.195312 -31.113281 8.320312 -32 11.03125 -32 C 11.976562 -32 12.941406 -31.820312 13.921875 -31.46875 C 14.910156 -31.125 15.796875 -30.5625 16.578125 -29.78125 C 16.660156 -29.695312 16.742188 -29.675781 16.828125 -29.71875 C 16.910156 -29.757812 16.953125 -29.84375 16.953125 -29.96875 Z M 13.25 -5.671875 C 14.238281 -5.671875 15.0625 -5.988281 15.71875 -6.625 C 16.375 -7.257812 16.785156 -8.113281 16.953125 -9.1875 L 16.953125 -22.3125 C 16.785156 -23.382812 16.375 -24.238281 15.71875 -24.875 C 15.0625 -25.507812 14.238281 -25.828125 13.25 -25.828125 C 12.101562 -25.828125 11.179688 -25.425781 10.484375 -24.625 C 9.785156 -23.820312 9.4375 -22.765625 9.4375 -21.453125 L 9.4375 -10.046875 C 9.4375 -8.734375 9.785156 -7.675781 10.484375 -6.875 C 11.179688 -6.070312 12.101562 -5.671875 13.25 -5.671875 Z M 13.25 -5.671875" transform="translate(82.55 54.874)"/></g></g></g><g fill="#38B6FF"><g><g><path d="M 24.171875 -13.875 C 24.171875 -13.664062 24.097656 -13.488281 23.953125 -13.34375 C 23.804688 -13.195312 23.628906 -13.125 23.421875 -13.125 L 9.796875 -13.125 C 9.597656 -13.125 9.5 -13.023438 9.5 -12.828125 L 9.5 -10.046875 C 9.5 -8.773438 9.847656 -7.726562 10.546875 -6.90625 C 11.242188 -6.082031 12.144531 -5.671875 13.25 -5.671875 C 14.195312 -5.671875 15.007812 -5.96875 15.6875 -6.5625 C 16.363281 -7.15625 16.804688 -7.925781 17.015625 -8.875 C 17.140625 -9.289062 17.40625 -9.5 17.8125 -9.5 L 23.3125 -9.25 C 23.507812 -9.25 23.679688 -9.175781 23.828125 -9.03125 C 23.972656 -8.882812 24.023438 -8.691406 23.984375 -8.453125 C 23.691406 -5.566406 22.640625 -3.351562 20.828125 -1.8125 C 19.023438 -0.269531 16.5 0.5 13.25 0.5 C 9.882812 0.5 7.222656 -0.394531 5.265625 -2.1875 C 3.316406 -3.976562 2.34375 -6.414062 2.34375 -9.5 L 2.34375 -22.015625 C 2.34375 -25.015625 3.316406 -27.425781 5.265625 -29.25 C 7.222656 -31.082031 9.882812 -32 13.25 -32 C 16.625 -32 19.285156 -31.082031 21.234375 -29.25 C 23.191406 -27.425781 24.171875 -25.015625 24.171875 -22.015625 Z M 13.25 -25.828125 C 12.144531 -25.828125 11.242188 -25.414062 10.546875 -24.59375 C 9.847656 -23.78125 9.5 -22.734375 9.5 -21.453125 L 9.5 -18.6875 C 9.5 -18.476562 9.597656 -18.375 9.796875 -18.375 L 16.765625 -18.375 C 16.972656 -18.375 17.078125 -18.476562 17.078125 -18.6875 L 17.078125 -21.453125 C 17.078125 -22.765625 16.726562 -23.820312 16.03125 -24.625 C 15.332031 -25.425781 14.40625 -25.828125 13.25 -25.828125 Z M 13.25 -25.828125" transform="translate(108.88 54.874)"/></g></g></g><g fill-opacity=".729"><g><g><path d="M 16.15625 -32 C 18.90625 -32 21.039062 -31.101562 22.5625 -29.3125 C 24.082031 -27.53125 24.84375 -25.097656 24.84375 -22.015625 L 24.84375 -9.5625 C 24.84375 -6.394531 24.082031 -3.925781 22.5625 -2.15625 C 21.039062 -0.382812 18.90625 0.5 16.15625 0.5 C 15.207031 0.5 14.238281 0.320312 13.25 -0.03125 C 12.269531 -0.382812 11.390625 -0.945312 10.609375 -1.71875 C 10.523438 -1.800781 10.441406 -1.820312 10.359375 -1.78125 C 10.273438 -1.738281 10.234375 -1.660156 10.234375 -1.546875 L 10.234375 10.90625 C 10.234375 11.113281 10.160156 11.289062 10.015625 11.4375 C 9.867188 11.582031 9.695312 11.65625 9.5 11.65625 L 3.828125 11.65625 C 3.617188 11.65625 3.441406 11.582031 3.296875 11.4375 C 3.148438 11.289062 3.078125 11.113281 3.078125 10.90625 L 3.078125 -30.765625 C 3.078125 -30.972656 3.148438 -31.144531 3.296875 -31.28125 C 3.441406 -31.425781 3.617188 -31.5 3.828125 -31.5 L 9.5 -31.5 C 9.695312 -31.5 9.867188 -31.425781 10.015625 -31.28125 C 10.160156 -31.144531 10.234375 -30.972656 10.234375 -30.765625 L 10.234375 -30.03125 C 10.234375 -29.90625 10.285156 -29.832031 10.390625 -29.8125 C 10.492188 -29.789062 10.609375 -29.863281 10.734375 -30.03125 C 12.171875 -31.34375 13.976562 -32 16.15625 -32 Z M 17.75 -21.453125 C 17.75 -22.765625 17.398438 -23.832031 16.703125 -24.65625 C 16.003906 -25.476562 15.082031 -25.890625 13.9375 -25.890625 C 12.820312 -25.890625 11.925781 -25.476562 11.25 -24.65625 C 10.570312 -23.832031 10.234375 -22.765625 10.234375 -21.453125 L 10.234375 -10.046875 C 10.234375 -8.734375 10.570312 -7.675781 11.25 -6.875 C 11.925781 -6.070312 12.820312 -5.671875 13.9375 -5.671875 C 15.082031 -5.671875 16.003906 -6.070312 16.703125 -6.875 C 17.398438 -7.675781 17.75 -8.734375 17.75 -10.046875 Z M 17.75 -21.453125" transform="translate(136.162 56.51)"/></g></g></g><g fill-opacity=".729"><g><g><path d="M 17.078125 -30.765625 C 17.078125 -30.972656 17.148438 -31.144531 17.296875 -31.28125 C 17.441406 -31.425781 17.613281 -31.5 17.8125 -31.5 L 23.484375 -31.5 C 23.691406 -31.5 23.867188 -31.425781 24.015625 -31.28125 C 24.160156 -31.144531 24.234375 -30.972656 24.234375 -30.765625 L 24.234375 -0.734375 C 24.234375 -0.535156 24.160156 -0.363281 24.015625 -0.21875 C 23.867188 -0.0703125 23.691406 0 23.484375 0 L 17.8125 0 C 17.613281 0 17.441406 -0.0703125 17.296875 -0.21875 C 17.148438 -0.363281 17.078125 -0.535156 17.078125 -0.734375 L 17.078125 -2.09375 C 17.078125 -2.21875 17.035156 -2.300781 16.953125 -2.34375 C 16.867188 -2.382812 16.785156 -2.34375 16.703125 -2.21875 C 15.515625 -0.445312 13.601562 0.4375 10.96875 0.4375 C 8.46875 0.4375 6.445312 -0.3125 4.90625 -1.8125 C 3.363281 -3.3125 2.59375 -5.625 2.59375 -8.75 L 2.59375 -30.765625 C 2.59375 -30.972656 2.660156 -31.144531 2.796875 -31.28125 C 2.941406 -31.425781 3.117188 -31.5 3.328125 -31.5 L 9 -31.5 C 9.207031 -31.5 9.378906 -31.425781 9.515625 -31.28125 C 9.660156 -31.144531 9.734375 -30.972656 9.734375 -30.765625 L 9.734375 -10.296875 C 9.734375 -7.210938 10.925781 -5.671875 13.3125 -5.671875 C 14.507812 -5.671875 15.4375 -6.113281 16.09375 -7 C 16.75 -7.882812 17.078125 -9.085938 17.078125 -10.609375 Z M 17.078125 -30.765625" transform="translate(162.739 56.51)"/></g></g></g><g fill-opacity=".729"><g><g><path d="M 15.71875 -31.875 C 16.832031 -31.875 17.695312 -31.671875 18.3125 -31.265625 C 18.644531 -31.054688 18.769531 -30.742188 18.6875 -30.328125 L 17.703125 -24.59375 C 17.660156 -24.101562 17.367188 -23.960938 16.828125 -24.171875 C 16.253906 -24.335938 15.722656 -24.421875 15.234375 -24.421875 C 14.734375 -24.421875 14.28125 -24.359375 13.875 -24.234375 C 12.71875 -24.066406 11.78125 -23.414062 11.0625 -22.28125 C 10.34375 -21.15625 9.984375 -19.8125 9.984375 -18.25 L 9.984375 -0.796875 C 9.984375 -0.597656 9.910156 -0.425781 9.765625 -0.28125 C 9.628906 -0.132812 9.457031 -0.0625 9.25 -0.0625 L 3.578125 -0.0625 C 3.367188 -0.0625 3.191406 -0.132812 3.046875 -0.28125 C 2.910156 -0.425781 2.84375 -0.597656 2.84375 -0.796875 L 2.84375 -30.765625 C 2.84375 -30.972656 2.910156 -31.144531 3.046875 -31.28125 C 3.191406 -31.425781 3.367188 -31.5 3.578125 -31.5 L 9.25 -31.5 C 9.457031 -31.5 9.628906 -31.425781 9.765625 -31.28125 C 9.910156 -31.144531 9.984375 -30.972656 9.984375 -30.765625 L 9.984375 -27.9375 C 9.984375 -27.769531 10.023438 -27.675781 10.109375 -27.65625 C 10.191406 -27.632812 10.253906 -27.707031 10.296875 -27.875 C 11.410156 -30.539062 13.21875 -31.875 15.71875 -31.875 Z M 15.71875 -31.875" transform="translate(189.13 56.51)"/></g></g></g><g fill-opacity=".729"><g><g><path d="M 16.15625 -32 C 18.90625 -32 21.039062 -31.101562 22.5625 -29.3125 C 24.082031 -27.53125 24.84375 -25.097656 24.84375 -22.015625 L 24.84375 -9.5625 C 24.84375 -6.394531 24.082031 -3.925781 22.5625 -2.15625 C 21.039062 -0.382812 18.90625 0.5 16.15625 0.5 C 15.207031 0.5 14.238281 0.320312 13.25 -0.03125 C 12.269531 -0.382812 11.390625 -0.945312 10.609375 -1.71875 C 10.523438 -1.800781 10.441406 -1.820312 10.359375 -1.78125 C 10.273438 -1.738281 10.234375 -1.660156 10.234375 -1.546875 L 10.234375 10.90625 C 10.234375 11.113281 10.160156 11.289062 10.015625 11.4375 C 9.867188 11.582031 9.695312 11.65625 9.5 11.65625 L 3.828125 11.65625 C 3.617188 11.65625 3.441406 11.582031 3.296875 11.4375 C 3.148438 11.289062 3.078125 11.113281 3.078125 10.90625 L 3.078125 -30.765625 C 3.078125 -30.972656 3.148438 -31.144531 3.296875 -31.28125 C 3.441406 -31.425781 3.617188 -31.5 3.828125 -31.5 L 9.5 -31.5 C 9.695312 -31.5 9.867188 -31.425781 10.015625 -31.28125 C 10.160156 -31.144531 10.234375 -30.972656 10.234375 -30.765625 L 10.234375 -30.03125 C 10.234375 -29.90625 10.285156 -29.832031 10.390625 -29.8125 C 10.492188 -29.789062 10.609375 -29.863281 10.734375 -30.03125 C 12.171875 -31.34375 13.976562 -32 16.15625 -32 Z M 17.75 -21.453125 C 17.75 -22.765625 17.398438 -23.832031 16.703125 -24.65625 C 16.003906 -25.476562 15.082031 -25.890625 13.9375 -25.890625 C 12.820312 -25.890625 11.925781 -25.476562 11.25 -24.65625 C 10.570312 -23.832031 10.234375 -22.765625 10.234375 -21.453125 L 10.234375 -10.046875 C 10.234375 -8.734375 10.570312 -7.675781 11.25 -6.875 C 11.925781 -6.070312 12.820312 -5.671875 13.9375 -5.671875 C 15.082031 -5.671875 16.003906 -6.070312 16.703125 -6.875 C 17.398438 -7.675781 17.75 -8.734375 17.75 -10.046875 Z M 17.75 -21.453125" transform="translate(207.815 56.51)"/></g></g></g><g fill-opacity=".729"><g><g><path d="M 13.3125 0.5 C 9.90625 0.5 7.222656 -0.40625 5.265625 -2.21875 C 3.316406 -4.03125 2.34375 -6.476562 2.34375 -9.5625 L 2.34375 -21.953125 C 2.34375 -24.992188 3.328125 -27.425781 5.296875 -29.25 C 7.273438 -31.082031 9.945312 -32 13.3125 -32 C 16.726562 -32 19.421875 -31.082031 21.390625 -29.25 C 23.367188 -27.425781 24.359375 -24.992188 24.359375 -21.953125 L 24.359375 -9.5625 C 24.359375 -6.476562 23.378906 -4.03125 21.421875 -2.21875 C 19.472656 -0.40625 16.769531 0.5 13.3125 0.5 Z M 13.3125 -5.734375 C 14.46875 -5.734375 15.40625 -6.132812 16.125 -6.9375 C 16.84375 -7.738281 17.203125 -8.796875 17.203125 -10.109375 L 17.203125 -21.453125 C 17.203125 -22.734375 16.84375 -23.78125 16.125 -24.59375 C 15.40625 -25.414062 14.46875 -25.828125 13.3125 -25.828125 C 12.164062 -25.828125 11.242188 -25.425781 10.546875 -24.625 C 9.847656 -23.820312 9.5 -22.765625 9.5 -21.453125 L 9.5 -10.109375 C 9.5 -8.796875 9.847656 -7.738281 10.546875 -6.9375 C 11.242188 -6.132812 12.164062 -5.734375 13.3125 -5.734375 Z M 13.3125 -5.734375" transform="translate(234.392 56.51)"/></g></g></g><g fill-opacity=".729"><g><g><path d="M 12.515625 0.375 C 9.265625 0.375 6.671875 -0.40625 4.734375 -1.96875 C 2.804688 -3.53125 1.84375 -5.648438 1.84375 -8.328125 L 1.84375 -8.75 C 1.84375 -8.957031 1.914062 -9.132812 2.0625 -9.28125 C 2.207031 -9.425781 2.382812 -9.5 2.59375 -9.5 L 7.890625 -9.5 C 8.097656 -9.5 8.269531 -9.425781 8.40625 -9.28125 C 8.550781 -9.132812 8.625 -8.957031 8.625 -8.75 L 8.625 -8.453125 C 8.625 -7.460938 9.003906 -6.640625 9.765625 -5.984375 C 10.523438 -5.328125 11.460938 -5 12.578125 -5 C 13.648438 -5 14.492188 -5.304688 15.109375 -5.921875 C 15.722656 -6.535156 16.03125 -7.316406 16.03125 -8.265625 C 16.03125 -9.085938 15.757812 -9.773438 15.21875 -10.328125 C 14.6875 -10.878906 14.113281 -11.296875 13.5 -11.578125 C 12.882812 -11.867188 11.773438 -12.347656 10.171875 -13.015625 C 7.828125 -13.910156 5.90625 -15.054688 4.40625 -16.453125 C 2.90625 -17.859375 2.15625 -19.9375 2.15625 -22.6875 C 2.15625 -25.5625 3.066406 -27.8125 4.890625 -29.4375 C 6.722656 -31.0625 9.203125 -31.875 12.328125 -31.875 C 15.535156 -31.875 18.070312 -31.019531 19.9375 -29.3125 C 21.8125 -27.613281 22.75 -25.320312 22.75 -22.4375 C 22.75 -22.238281 22.675781 -22.066406 22.53125 -21.921875 C 22.382812 -21.773438 22.210938 -21.703125 22.015625 -21.703125 L 16.828125 -21.703125 C 16.628906 -21.703125 16.457031 -21.773438 16.3125 -21.921875 C 16.164062 -22.066406 16.09375 -22.238281 16.09375 -22.4375 L 16.09375 -22.8125 C 16.09375 -23.800781 15.753906 -24.625 15.078125 -25.28125 C 14.398438 -25.9375 13.546875 -26.265625 12.515625 -26.265625 C 11.441406 -26.265625 10.585938 -25.925781 9.953125 -25.25 C 9.316406 -24.570312 9 -23.757812 9 -22.8125 C 9 -22.03125 9.242188 -21.367188 9.734375 -20.828125 C 10.234375 -20.296875 10.789062 -19.875 11.40625 -19.5625 C 12.019531 -19.257812 13.046875 -18.800781 14.484375 -18.1875 C 16.210938 -17.488281 17.660156 -16.800781 18.828125 -16.125 C 20.003906 -15.445312 21.035156 -14.476562 21.921875 -13.21875 C 22.804688 -11.96875 23.25 -10.414062 23.25 -8.5625 C 23.25 -5.8125 22.28125 -3.632812 20.34375 -2.03125 C 18.414062 -0.425781 15.804688 0.375 12.515625 0.375 Z M 12.515625 0.375" transform="translate(260.414 56.51)"/></g></g></g><g fill-opacity=".729"><g><g><path d="M 24.171875 -13.875 C 24.171875 -13.664062 24.097656 -13.488281 23.953125 -13.34375 C 23.804688 -13.195312 23.628906 -13.125 23.421875 -13.125 L 9.796875 -13.125 C 9.597656 -13.125 9.5 -13.023438 9.5 -12.828125 L 9.5 -10.046875 C 9.5 -8.773438 9.847656 -7.726562 10.546875 -6.90625 C 11.242188 -6.082031 12.144531 -5.671875 13.25 -5.671875 C 14.195312 -5.671875 15.007812 -5.96875 15.6875 -6.5625 C 16.363281 -7.15625 16.804688 -7.925781 17.015625 -8.875 C 17.140625 -9.289062 17.40625 -9.5 17.8125 -9.5 L 23.3125 -9.25 C 23.507812 -9.25 23.679688 -9.175781 23.828125 -9.03125 C 23.972656 -8.882812 24.023438 -8.691406 23.984375 -8.453125 C 23.691406 -5.566406 22.640625 -3.351562 20.828125 -1.8125 C 19.023438 -0.269531 16.5 0.5 13.25 0.5 C 9.882812 0.5 7.222656 -0.394531 5.265625 -2.1875 C 3.316406 -3.976562 2.34375 -6.414062 2.34375 -9.5 L 2.34375 -22.015625 C 2.34375 -25.015625 3.316406 -27.425781 5.265625 -29.25 C 7.222656 -31.082031 9.882812 -32 13.25 -32 C 16.625 -32 19.285156 -31.082031 21.234375 -29.25 C 23.191406 -27.425781 24.171875 -25.015625 24.171875 -22.015625 Z M 13.25 -25.828125 C 12.144531 -25.828125 11.242188 -25.414062 10.546875 -24.59375 C 9.847656 -23.78125 9.5 -22.734375 9.5 -21.453125 L 9.5 -18.6875 C 9.5 -18.476562 9.597656 -18.375 9.796875 -18.375 L 16.765625 -18.375 C 16.972656 -18.375 17.078125 -18.476562 17.078125 -18.6875 L 17.078125 -21.453125 C 17.078125 -22.765625 16.726562 -23.820312 16.03125 -24.625 C 15.332031 -25.425781 14.40625 -25.828125 13.25 -25.828125 Z M 13.25 -25.828125" transform="translate(284.339 56.51)"/></g></g></g><g fill-opacity=".729"><g><g><path d="M 1.90625 0 C 1.664062 0 1.484375 -0.0820312 1.359375 -0.25 C 1.234375 -0.414062 1.210938 -0.617188 1.296875 -0.859375 L 13.9375 -42.546875 C 14.0625 -42.953125 14.328125 -43.15625 14.734375 -43.15625 L 20.40625 -43.15625 C 20.65625 -43.15625 20.835938 -43.070312 20.953125 -42.90625 C 21.078125 -42.75 21.101562 -42.546875 21.03125 -42.296875 L 8.390625 -0.609375 C 8.265625 -0.203125 7.992188 0 7.578125 0 Z M 1.90625 0" transform="translate(321.707 56.51)"/></g></g></g><g fill-opacity=".729"><g><g><path d="M 2.53125 -3.640625 C 2.363281 -3.554688 2.238281 -3.515625 2.15625 -3.515625 C 1.832031 -3.515625 1.671875 -3.738281 1.671875 -4.1875 L 1.671875 -9.4375 C 1.671875 -9.84375 1.851562 -10.128906 2.21875 -10.296875 L 18.1875 -17.328125 C 18.4375 -17.453125 18.4375 -17.578125 18.1875 -17.703125 L 2.21875 -24.71875 C 1.851562 -24.925781 1.671875 -25.21875 1.671875 -25.59375 L 1.671875 -30.828125 C 1.671875 -31.117188 1.75 -31.3125 1.90625 -31.40625 C 2.070312 -31.507812 2.28125 -31.503906 2.53125 -31.390625 L 24.90625 -20.84375 C 25.28125 -20.675781 25.46875 -20.390625 25.46875 -19.984375 L 25.46875 -14.984375 C 25.46875 -14.609375 25.28125 -14.320312 24.90625 -14.125 Z M 2.53125 -3.640625" transform="translate(344.892 56.51)"/></g></g></g><g><g><g><path d="M 16.15625 -32 C 18.90625 -32 21.039062 -31.101562 22.5625 -29.3125 C 24.082031 -27.53125 24.84375 -25.097656 24.84375 -22.015625 L 24.84375 -9.5625 C 24.84375 -6.394531 24.082031 -3.925781 22.5625 -2.15625 C 21.039062 -0.382812 18.90625 0.5 16.15625 0.5 C 15.207031 0.5 14.238281 0.320312 13.25 -0.03125 C 12.269531 -0.382812 11.390625 -0.945312 10.609375 -1.71875 C 10.523438 -1.800781 10.441406 -1.820312 10.359375 -1.78125 C 10.273438 -1.738281 10.234375 -1.660156 10.234375 -1.546875 L 10.234375 10.90625 C 10.234375 11.113281 10.160156 11.289062 10.015625 11.4375 C 9.867188 11.582031 9.695312 11.65625 9.5 11.65625 L 3.828125 11.65625 C 3.617188 11.65625 3.441406 11.582031 3.296875 11.4375 C 3.148438 11.289062 3.078125 11.113281 3.078125 10.90625 L 3.078125 -30.765625 C 3.078125 -30.972656 3.148438 -31.144531 3.296875 -31.28125 C 3.441406 -31.425781 3.617188 -31.5 3.828125 -31.5 L 9.5 -31.5 C 9.695312 -31.5 9.867188 -31.425781 10.015625 -31.28125 C 10.160156 -31.144531 10.234375 -30.972656 10.234375 -30.765625 L 10.234375 -30.03125 C 10.234375 -29.90625 10.285156 -29.832031 10.390625 -29.8125 C 10.492188 -29.789062 10.609375 -29.863281 10.734375 -30.03125 C 12.171875 -31.34375 13.976562 -32 16.15625 -32 Z M 17.75 -21.453125 C 17.75 -22.765625 17.398438 -23.832031 16.703125 -24.65625 C 16.003906 -25.476562 15.082031 -25.890625 13.9375 -25.890625 C 12.820312 -25.890625 11.925781 -25.476562 11.25 -24.65625 C 10.570312 -23.832031 10.234375 -22.765625 10.234375 -21.453125 L 10.234375 -10.046875 C 10.234375 -8.734375 10.570312 -7.675781 11.25 -6.875 C 11.925781 -6.070312 12.820312 -5.671875 13.9375 -5.671875 C 15.082031 -5.671875 16.003906 -6.070312 16.703125 -6.875 C 17.398438 -7.675781 17.75 -8.734375 17.75 -10.046875 Z M 17.75 -21.453125" transform="translate(134.527 54.874)"/></g></g></g><g><g><g><path d="M 17.078125 -30.765625 C 17.078125 -30.972656 17.148438 -31.144531 17.296875 -31.28125 C 17.441406 -31.425781 17.613281 -31.5 17.8125 -31.5 L 23.484375 -31.5 C 23.691406 -31.5 23.867188 -31.425781 24.015625 -31.28125 C 24.160156 -31.144531 24.234375 -30.972656 24.234375 -30.765625 L 24.234375 -0.734375 C 24.234375 -0.535156 24.160156 -0.363281 24.015625 -0.21875 C 23.867188 -0.0703125 23.691406 0 23.484375 0 L 17.8125 0 C 17.613281 0 17.441406 -0.0703125 17.296875 -0.21875 C 17.148438 -0.363281 17.078125 -0.535156 17.078125 -0.734375 L 17.078125 -2.09375 C 17.078125 -2.21875 17.035156 -2.300781 16.953125 -2.34375 C 16.867188 -2.382812 16.785156 -2.34375 16.703125 -2.21875 C 15.515625 -0.445312 13.601562 0.4375 10.96875 0.4375 C 8.46875 0.4375 6.445312 -0.3125 4.90625 -1.8125 C 3.363281 -3.3125 2.59375 -5.625 2.59375 -8.75 L 2.59375 -30.765625 C 2.59375 -30.972656 2.660156 -31.144531 2.796875 -31.28125 C 2.941406 -31.425781 3.117188 -31.5 3.328125 -31.5 L 9 -31.5 C 9.207031 -31.5 9.378906 -31.425781 9.515625 -31.28125 C 9.660156 -31.144531 9.734375 -30.972656 9.734375 -30.765625 L 9.734375 -10.296875 C 9.734375 -7.210938 10.925781 -5.671875 13.3125 -5.671875 C 14.507812 -5.671875 15.4375 -6.113281 16.09375 -7 C 16.75 -7.882812 17.078125 -9.085938 17.078125 -10.609375 Z M 17.078125 -30.765625" transform="translate(161.104 54.874)"/></g></g></g><g><g><g><path d="M 15.71875 -31.875 C 16.832031 -31.875 17.695312 -31.671875 18.3125 -31.265625 C 18.644531 -31.054688 18.769531 -30.742188 18.6875 -30.328125 L 17.703125 -24.59375 C 17.660156 -24.101562 17.367188 -23.960938 16.828125 -24.171875 C 16.253906 -24.335938 15.722656 -24.421875 15.234375 -24.421875 C 14.734375 -24.421875 14.28125 -24.359375 13.875 -24.234375 C 12.71875 -24.066406 11.78125 -23.414062 11.0625 -22.28125 C 10.34375 -21.15625 9.984375 -19.8125 9.984375 -18.25 L 9.984375 -0.796875 C 9.984375 -0.597656 9.910156 -0.425781 9.765625 -0.28125 C 9.628906 -0.132812 9.457031 -0.0625 9.25 -0.0625 L 3.578125 -0.0625 C 3.367188 -0.0625 3.191406 -0.132812 3.046875 -0.28125 C 2.910156 -0.425781 2.84375 -0.597656 2.84375 -0.796875 L 2.84375 -30.765625 C 2.84375 -30.972656 2.910156 -31.144531 3.046875 -31.28125 C 3.191406 -31.425781 3.367188 -31.5 3.578125 -31.5 L 9.25 -31.5 C 9.457031 -31.5 9.628906 -31.425781 9.765625 -31.28125 C 9.910156 -31.144531 9.984375 -30.972656 9.984375 -30.765625 L 9.984375 -27.9375 C 9.984375 -27.769531 10.023438 -27.675781 10.109375 -27.65625 C 10.191406 -27.632812 10.253906 -27.707031 10.296875 -27.875 C 11.410156 -30.539062 13.21875 -31.875 15.71875 -31.875 Z M 15.71875 -31.875" transform="translate(187.495 54.874)"/></g></g></g><g><g><g><path d="M 16.15625 -32 C 18.90625 -32 21.039062 -31.101562 22.5625 -29.3125 C 24.082031 -27.53125 24.84375 -25.097656 24.84375 -22.015625 L 24.84375 -9.5625 C 24.84375 -6.394531 24.082031 -3.925781 22.5625 -2.15625 C 21.039062 -0.382812 18.90625 0.5 16.15625 0.5 C 15.207031 0.5 14.238281 0.320312 13.25 -0.03125 C 12.269531 -0.382812 11.390625 -0.945312 10.609375 -1.71875 C 10.523438 -1.800781 10.441406 -1.820312 10.359375 -1.78125 C 10.273438 -1.738281 10.234375 -1.660156 10.234375 -1.546875 L 10.234375 10.90625 C 10.234375 11.113281 10.160156 11.289062 10.015625 11.4375 C 9.867188 11.582031 9.695312 11.65625 9.5 11.65625 L 3.828125 11.65625 C 3.617188 11.65625 3.441406 11.582031 3.296875 11.4375 C 3.148438 11.289062 3.078125 11.113281 3.078125 10.90625 L 3.078125 -30.765625 C 3.078125 -30.972656 3.148438 -31.144531 3.296875 -31.28125 C 3.441406 -31.425781 3.617188 -31.5 3.828125 -31.5 L 9.5 -31.5 C 9.695312 -31.5 9.867188 -31.425781 10.015625 -31.28125 C 10.160156 -31.144531 10.234375 -30.972656 10.234375 -30.765625 L 10.234375 -30.03125 C 10.234375 -29.90625 10.285156 -29.832031 10.390625 -29.8125 C 10.492188 -29.789062 10.609375 -29.863281 10.734375 -30.03125 C 12.171875 -31.34375 13.976562 -32 16.15625 -32 Z M 17.75 -21.453125 C 17.75 -22.765625 17.398438 -23.832031 16.703125 -24.65625 C 16.003906 -25.476562 15.082031 -25.890625 13.9375 -25.890625 C 12.820312 -25.890625 11.925781 -25.476562 11.25 -24.65625 C 10.570312 -23.832031 10.234375 -22.765625 10.234375 -21.453125 L 10.234375 -10.046875 C 10.234375 -8.734375 10.570312 -7.675781 11.25 -6.875 C 11.925781 -6.070312 12.820312 -5.671875 13.9375 -5.671875 C 15.082031 -5.671875 16.003906 -6.070312 16.703125 -6.875 C 17.398438 -7.675781 17.75 -8.734375 17.75 -10.046875 Z M 17.75 -21.453125" transform="translate(206.18 54.874)"/></g></g></g><g><g><g><path d="M 13.3125 0.5 C 9.90625 0.5 7.222656 -0.40625 5.265625 -2.21875 C 3.316406 -4.03125 2.34375 -6.476562 2.34375 -9.5625 L 2.34375 -21.953125 C 2.34375 -24.992188 3.328125 -27.425781 5.296875 -29.25 C 7.273438 -31.082031 9.945312 -32 13.3125 -32 C 16.726562 -32 19.421875 -31.082031 21.390625 -29.25 C 23.367188 -27.425781 24.359375 -24.992188 24.359375 -21.953125 L 24.359375 -9.5625 C 24.359375 -6.476562 23.378906 -4.03125 21.421875 -2.21875 C 19.472656 -0.40625 16.769531 0.5 13.3125 0.5 Z M 13.3125 -5.734375 C 14.46875 -5.734375 15.40625 -6.132812 16.125 -6.9375 C 16.84375 -7.738281 17.203125 -8.796875 17.203125 -10.109375 L 17.203125 -21.453125 C 17.203125 -22.734375 16.84375 -23.78125 16.125 -24.59375 C 15.40625 -25.414062 14.46875 -25.828125 13.3125 -25.828125 C 12.164062 -25.828125 11.242188 -25.425781 10.546875 -24.625 C 9.847656 -23.820312 9.5 -22.765625 9.5 -21.453125 L 9.5 -10.109375 C 9.5 -8.796875 9.847656 -7.738281 10.546875 -6.9375 C 11.242188 -6.132812 12.164062 -5.734375 13.3125 -5.734375 Z M 13.3125 -5.734375" transform="translate(232.756 54.874)"/></g></g></g><g><g><g><path d="M 12.515625 0.375 C 9.265625 0.375 6.671875 -0.40625 4.734375 -1.96875 C 2.804688 -3.53125 1.84375 -5.648438 1.84375 -8.328125 L 1.84375 -8.75 C 1.84375 -8.957031 1.914062 -9.132812 2.0625 -9.28125 C 2.207031 -9.425781 2.382812 -9.5 2.59375 -9.5 L 7.890625 -9.5 C 8.097656 -9.5 8.269531 -9.425781 8.40625 -9.28125 C 8.550781 -9.132812 8.625 -8.957031 8.625 -8.75 L 8.625 -8.453125 C 8.625 -7.460938 9.003906 -6.640625 9.765625 -5.984375 C 10.523438 -5.328125 11.460938 -5 12.578125 -5 C 13.648438 -5 14.492188 -5.304688 15.109375 -5.921875 C 15.722656 -6.535156 16.03125 -7.316406 16.03125 -8.265625 C 16.03125 -9.085938 15.757812 -9.773438 15.21875 -10.328125 C 14.6875 -10.878906 14.113281 -11.296875 13.5 -11.578125 C 12.882812 -11.867188 11.773438 -12.347656 10.171875 -13.015625 C 7.828125 -13.910156 5.90625 -15.054688 4.40625 -16.453125 C 2.90625 -17.859375 2.15625 -19.9375 2.15625 -22.6875 C 2.15625 -25.5625 3.066406 -27.8125 4.890625 -29.4375 C 6.722656 -31.0625 9.203125 -31.875 12.328125 -31.875 C 15.535156 -31.875 18.070312 -31.019531 19.9375 -29.3125 C 21.8125 -27.613281 22.75 -25.320312 22.75 -22.4375 C 22.75 -22.238281 22.675781 -22.066406 22.53125 -21.921875 C 22.382812 -21.773438 22.210938 -21.703125 22.015625 -21.703125 L 16.828125 -21.703125 C 16.628906 -21.703125 16.457031 -21.773438 16.3125 -21.921875 C 16.164062 -22.066406 16.09375 -22.238281 16.09375 -22.4375 L 16.09375 -22.8125 C 16.09375 -23.800781 15.753906 -24.625 15.078125 -25.28125 C 14.398438 -25.9375 13.546875 -26.265625 12.515625 -26.265625 C 11.441406 -26.265625 10.585938 -25.925781 9.953125 -25.25 C 9.316406 -24.570312 9 -23.757812 9 -22.8125 C 9 -22.03125 9.242188 -21.367188 9.734375 -20.828125 C 10.234375 -20.296875 10.789062 -19.875 11.40625 -19.5625 C 12.019531 -19.257812 13.046875 -18.800781 14.484375 -18.1875 C 16.210938 -17.488281 17.660156 -16.800781 18.828125 -16.125 C 20.003906 -15.445312 21.035156 -14.476562 21.921875 -13.21875 C 22.804688 -11.96875 23.25 -10.414062 23.25 -8.5625 C 23.25 -5.8125 22.28125 -3.632812 20.34375 -2.03125 C 18.414062 -0.425781 15.804688 0.375 12.515625 0.375 Z M 12.515625 0.375" transform="translate(258.778 54.874)"/></g></g></g><g><g><g><path d="M 24.171875 -13.875 C 24.171875 -13.664062 24.097656 -13.488281 23.953125 -13.34375 C 23.804688 -13.195312 23.628906 -13.125 23.421875 -13.125 L 9.796875 -13.125 C 9.597656 -13.125 9.5 -13.023438 9.5 -12.828125 L 9.5 -10.046875 C 9.5 -8.773438 9.847656 -7.726562 10.546875 -6.90625 C 11.242188 -6.082031 12.144531 -5.671875 13.25 -5.671875 C 14.195312 -5.671875 15.007812 -5.96875 15.6875 -6.5625 C 16.363281 -7.15625 16.804688 -7.925781 17.015625 -8.875 C 17.140625 -9.289062 17.40625 -9.5 17.8125 -9.5 L 23.3125 -9.25 C 23.507812 -9.25 23.679688 -9.175781 23.828125 -9.03125 C 23.972656 -8.882812 24.023438 -8.691406 23.984375 -8.453125 C 23.691406 -5.566406 22.640625 -3.351562 20.828125 -1.8125 C 19.023438 -0.269531 16.5 0.5 13.25 0.5 C 9.882812 0.5 7.222656 -0.394531 5.265625 -2.1875 C 3.316406 -3.976562 2.34375 -6.414062 2.34375 -9.5 L 2.34375 -22.015625 C 2.34375 -25.015625 3.316406 -27.425781 5.265625 -29.25 C 7.222656 -31.082031 9.882812 -32 13.25 -32 C 16.625 -32 19.285156 -31.082031 21.234375 -29.25 C 23.191406 -27.425781 24.171875 -25.015625 24.171875 -22.015625 Z M 13.25 -25.828125 C 12.144531 -25.828125 11.242188 -25.414062 10.546875 -24.59375 C 9.847656 -23.78125 9.5 -22.734375 9.5 -21.453125 L 9.5 -18.6875 C 9.5 -18.476562 9.597656 -18.375 9.796875 -18.375 L 16.765625 -18.375 C 16.972656 -18.375 17.078125 -18.476562 17.078125 -18.6875 L 17.078125 -21.453125 C 17.078125 -22.765625 16.726562 -23.820312 16.03125 -24.625 C 15.332031 -25.425781 14.40625 -25.828125 13.25 -25.828125 Z M 13.25 -25.828125" transform="translate(282.704 54.874)"/></g></g></g><g><g><g><path d="M 1.90625 0 C 1.664062 0 1.484375 -0.0820312 1.359375 -0.25 C 1.234375 -0.414062 1.210938 -0.617188 1.296875 -0.859375 L 13.9375 -42.546875 C 14.0625 -42.953125 14.328125 -43.15625 14.734375 -43.15625 L 20.40625 -43.15625 C 20.65625 -43.15625 20.835938 -43.070312 20.953125 -42.90625 C 21.078125 -42.75 21.101562 -42.546875 21.03125 -42.296875 L 8.390625 -0.609375 C 8.265625 -0.203125 7.992188 0 7.578125 0 Z M 1.90625 0" transform="translate(320.072 54.874)"/></g></g></g><g><g><g><path d="M 2.53125 -3.640625 C 2.363281 -3.554688 2.238281 -3.515625 2.15625 -3.515625 C 1.832031 -3.515625 1.671875 -3.738281 1.671875 -4.1875 L 1.671875 -9.4375 C 1.671875 -9.84375 1.851562 -10.128906 2.21875 -10.296875 L 18.1875 -17.328125 C 18.4375 -17.453125 18.4375 -17.578125 18.1875 -17.703125 L 2.21875 -24.71875 C 1.851562 -24.925781 1.671875 -25.21875 1.671875 -25.59375 L 1.671875 -30.828125 C 1.671875 -31.117188 1.75 -31.3125 1.90625 -31.40625 C 2.070312 -31.507812 2.28125 -31.503906 2.53125 -31.390625 L 24.90625 -20.84375 C 25.28125 -20.675781 25.46875 -20.390625 25.46875 -19.984375 L 25.46875 -14.984375 C 25.46875 -14.609375 25.28125 -14.320312 24.90625 -14.125 Z M 2.53125 -3.640625" transform="translate(343.257 54.874)"/></g></g></g></svg>